<?xml version="1.0" encoding="UTF-8"?>
<svg version="1.1" xmlns="http://www.w3.org/2000/svg" width="221" height="214">
<path d="M0 0 C1.26172899 13.65371014 1.10117918 27.30033933 1 41 C1.71953857 40.96970703 2.43907715 40.93941406 3.18041992 40.90820312 C6.51600441 40.76936506 9.85174464 40.6346677 13.1875 40.5 C14.31865234 40.45230469 15.44980469 40.40460938 16.61523438 40.35546875 C33.35027867 39.68797411 33.35027867 39.68797411 40 40 C42.57610625 42.57610625 41.33217026 49.54636563 41.375 53 C41.43107422 54.66869141 41.43107422 54.66869141 41.48828125 56.37109375 C41.56642698 63.742841 40.62492607 69.11207061 36 75 C31.81090582 78.92650097 29.96813204 80 24 80 C24 73.4 24 66.8 24 60 C20.51373047 60.05220703 20.51373047 60.05220703 16.95703125 60.10546875 C14.69654569 60.12889045 12.43607384 60.14709207 10.17553711 60.16479492 C8.60906893 60.17984622 7.04264264 60.20029207 5.47631836 60.22631836 C3.21978394 60.26286433 0.96380847 60.27976261 -1.29296875 60.29296875 C-1.98899704 60.30845261 -2.68502533 60.32393646 -3.40214539 60.33988953 C-7.7579576 60.34138428 -10.56434194 59.73497831 -14 57 C-14 56.34 -14 55.68 -14 55 C-14.66 55 -15.32 55 -16 55 C-16.66 54.01 -17.32 53.02 -18 52 C-17.32819733 55.52420011 -17.32819733 55.52420011 -16.296875 58.953125 C-16 61 -16 61 -17.07421875 62.78125 C-17.60660156 63.3484375 -18.13898438 63.915625 -18.6875 64.5 C-19.52667969 65.39912109 -19.52667969 65.39912109 -20.3828125 66.31640625 C-21.18332031 67.14978516 -21.18332031 67.14978516 -22 68 C-22.680625 68.804375 -23.36125 69.60875 -24.0625 70.4375 C-26 72 -26 72 -28.3553009 72.30667114 C-32.60802122 71.81353882 -34.49652807 69.46592965 -37.33041382 66.42962646 C-40.18726535 62.2722597 -40.09186395 58.42367734 -39.95703125 53.5078125 C-39.95757004 52.52183075 -39.95810883 51.535849 -39.95866394 50.51998901 C-39.95099712 48.44399361 -39.92382661 46.367988 -39.87817383 44.29248047 C-39.81280862 41.13988474 -39.81654428 37.99298371 -39.83007812 34.83984375 C-39.81400148 32.81246329 -39.79394892 30.78510966 -39.76953125 28.7578125 C-39.77024124 27.82832794 -39.77095123 26.89884338 -39.77168274 25.94119263 C-39.57350523 18.97505502 -37.52302177 13.97563596 -34 8 C-33.34 8 -32.68 8 -32 8 C-32 7.34 -32 6.68 -32 6 C-30.77493102 5.34642722 -29.54470484 4.70251767 -28.3125 4.0625 C-27.62800781 3.70285156 -26.94351563 3.34320313 -26.23828125 2.97265625 C-21.4780697 0.90408264 -16.57156377 0.75869763 -11.4375 0.4375 C-9.48650391 0.31181641 -9.48650391 0.31181641 -7.49609375 0.18359375 C-5.00008579 0.05251847 -2.49944723 0 0 0 Z " fill="#E218C5" transform="translate(113,60)"/>
<path d="M0 0 C1.26172899 13.65371014 1.10117918 27.30033933 1 41 C1.71953857 40.96970703 2.43907715 40.93941406 3.18041992 40.90820312 C6.51600441 40.76936506 9.85174464 40.6346677 13.1875 40.5 C14.31865234 40.45230469 15.44980469 40.40460938 16.61523438 40.35546875 C33.35027867 39.68797411 33.35027867 39.68797411 40 40 C42.58955157 42.58955157 41.18558792 49.95177603 41.1875 53.4375 C41.19974609 54.60861328 41.21199219 55.77972656 41.22460938 56.98632812 C41.22654297 58.10330078 41.22847656 59.22027344 41.23046875 60.37109375 C41.23457764 61.40161865 41.23868652 62.43214355 41.24291992 63.49389648 C41 66 41 66 39 68 C39.33 59.42 39.66 50.84 40 42 C26.47 42 12.94 42 -1 42 C-1 28.8 -1 15.6 -1 2 C-6.61 2 -12.22 2 -18 2 C-17.67 17.18 -17.34 32.36 -17 48 C-15.68 48 -14.36 48 -13 48 C-13 48.66 -13 49.32 -13 50 C-12.34 50 -11.68 50 -11 50 C-11 50.99 -11 51.98 -11 53 C-8.03 52.505 -8.03 52.505 -5 52 C-4.505 53.98 -4.505 53.98 -4 56 C-2.68 56 -1.36 56 0 56 C0 56.99 0 57.98 0 59 C8.25 59 16.5 59 25 59 C25.99 65.435 25.99 65.435 27 72 C27.99 72 28.98 72 30 72 C30 72.66 30 73.32 30 74 C33.68754757 73.50168276 35.60490662 72.89932357 38 70 C36.82895624 74.55405907 34.58655039 76.42555309 30.94921875 79.08203125 C29 80 29 80 24 80 C24 73.4 24 66.8 24 60 C20.51373047 60.05220703 20.51373047 60.05220703 16.95703125 60.10546875 C14.69654569 60.12889045 12.43607384 60.14709207 10.17553711 60.16479492 C8.60906893 60.17984622 7.04264264 60.20029207 5.47631836 60.22631836 C3.21978394 60.26286433 0.96380847 60.27976261 -1.29296875 60.29296875 C-1.98899704 60.30845261 -2.68502533 60.32393646 -3.40214539 60.33988953 C-7.7579576 60.34138428 -10.56434194 59.73497831 -14 57 C-14 56.34 -14 55.68 -14 55 C-14.66 55 -15.32 55 -16 55 C-16.66 54.01 -17.32 53.02 -18 52 C-17.32819733 55.52420011 -17.32819733 55.52420011 -16.296875 58.953125 C-16 61 -16 61 -17.07421875 62.78125 C-17.60660156 63.3484375 -18.13898438 63.915625 -18.6875 64.5 C-19.52667969 65.39912109 -19.52667969 65.39912109 -20.3828125 66.31640625 C-21.18332031 67.14978516 -21.18332031 67.14978516 -22 68 C-22.680625 68.804375 -23.36125 69.60875 -24.0625 70.4375 C-26 72 -26 72 -28.3553009 72.30667114 C-32.60802122 71.81353882 -34.49652807 69.46592965 -37.33041382 66.42962646 C-40.18726535 62.2722597 -40.09186395 58.42367734 -39.95703125 53.5078125 C-39.95757004 52.52183075 -39.95810883 51.535849 -39.95866394 50.51998901 C-39.95099712 48.44399361 -39.92382661 46.367988 -39.87817383 44.29248047 C-39.81280862 41.13988474 -39.81654428 37.99298371 -39.83007812 34.83984375 C-39.81400148 32.81246329 -39.79394892 30.78510966 -39.76953125 28.7578125 C-39.77024124 27.82832794 -39.77095123 26.89884338 -39.77168274 25.94119263 C-39.57350523 18.97505502 -37.52302177 13.97563596 -34 8 C-33.34 8 -32.68 8 -32 8 C-32 7.34 -32 6.68 -32 6 C-30.77493102 5.34642722 -29.54470484 4.70251767 -28.3125 4.0625 C-27.62800781 3.70285156 -26.94351563 3.34320313 -26.23828125 2.97265625 C-21.4780697 0.90408264 -16.57156377 0.75869763 -11.4375 0.4375 C-9.48650391 0.31181641 -9.48650391 0.31181641 -7.49609375 0.18359375 C-5.00008579 0.05251847 -2.49944723 0 0 0 Z " fill="#4D0C60" transform="translate(113,60)"/>
<path d="M0 0 C0.72160812 0.00470306 1.44321625 0.00940613 2.18669128 0.01425171 C4.4731194 0.03546866 6.75716751 0.09204557 9.04296875 0.1484375 C10.59698341 0.16495751 12.1510228 0.17930225 13.70507812 0.19140625 C25.03425815 0.3272269 25.03425815 0.3272269 26.23046875 1.5234375 C26.32907006 2.92692485 26.36125812 4.33524227 26.36328125 5.7421875 C26.36521484 7.01642578 26.36521484 7.01642578 26.3671875 8.31640625 C26.36332031 9.20972656 26.35945313 10.10304687 26.35546875 11.0234375 C26.36126953 12.36341797 26.36126953 12.36341797 26.3671875 13.73046875 C26.36589844 14.57996094 26.36460937 15.42945313 26.36328125 16.3046875 C26.36215332 17.08908203 26.36102539 17.87347656 26.35986328 18.68164062 C26.23046875 20.5234375 26.23046875 20.5234375 25.23046875 21.5234375 C22.16304028 21.63706718 19.1189873 21.68762982 16.05078125 21.69140625 C15.12707733 21.69473465 14.20337341 21.69806305 13.25167847 21.70149231 C11.29295349 21.70656608 9.33421983 21.7089005 7.37548828 21.70874023 C4.37518054 21.71092316 1.37524242 21.72906424 -1.625 21.74804688 C-3.52473832 21.75098138 -5.4244784 21.75296579 -7.32421875 21.75390625 C-8.22429657 21.76109177 -9.12437439 21.76827728 -10.05172729 21.77568054 C-10.88914459 21.77260391 -11.72656189 21.76952728 -12.58935547 21.76635742 C-13.69402664 21.76849495 -13.69402664 21.76849495 -14.8210144 21.77067566 C-16.76953125 21.5234375 -16.76953125 21.5234375 -19.76953125 19.5234375 C-19.76953125 18.8634375 -19.76953125 18.2034375 -19.76953125 17.5234375 C-20.42953125 17.5234375 -21.08953125 17.5234375 -21.76953125 17.5234375 C-21.26212663 13.12593078 -18.68659811 10.65394828 -15.76953125 7.5234375 C-15.10953125 7.5234375 -14.44953125 7.5234375 -13.76953125 7.5234375 C-13.76953125 6.8634375 -13.76953125 6.2034375 -13.76953125 5.5234375 C-9.40111604 1.01971552 -6.31859661 -0.20827742 0 0 Z " fill="#49A1F8" transform="translate(109.76953125,120.4765625)"/>
<path d="M0 0 C0 0.99 0 1.98 0 3 C0.99 3 1.98 3 3 3 C3.99 4.485 3.99 4.485 5 6 C5.33 6.33 5.66 6.66 6 7 C6.08767112 9.07262076 6.10695873 11.14820294 6.09765625 13.22265625 C6.09443359 14.48271484 6.09121094 15.74277344 6.08789062 17.04101562 C6.07953403 18.38151109 6.07106907 19.72200588 6.0625 21.0625 C6.0574866 22.40689942 6.05292342 23.7513006 6.04882812 25.09570312 C6.03699488 28.39717941 6.02050971 31.69856803 6 35 C7.32 35.33 8.64 35.66 10 36 C10.66796875 37.78125 10.66796875 37.78125 11 40 C9.92578125 41.78125 9.92578125 41.78125 8.3125 43.5 C7.75433594 44.098125 7.19617188 44.69625 6.62109375 45.3125 C6.08613281 45.869375 5.55117187 46.42625 5 47 C4.29875 47.825 3.5975 48.65 2.875 49.5 C2.25625 49.995 1.6375 50.49 1 51 C-3.41614001 50.43227705 -6.29494787 48.27229442 -9.32421875 45.125 C-13.30191464 37.70738528 -11.77989014 28.17886506 -11.5 20 C-11.45983595 17.96491351 -11.42334032 15.92975111 -11.390625 13.89453125 C-11.30282617 8.9278033 -11.16498366 3.96473903 -11 -1 C-6.54071649 -1.88320989 -4.12350902 -2.06175451 0 0 Z " fill="#5F89F8" transform="translate(86,81)"/>
<path d="M0 0 C0.33 0 0.66 0 1 0 C1 3.96 1 7.92 1 12 C14.53 12 28.06 12 42 12 C42.020625 15.691875 42.04125 19.38375 42.0625 23.1875 C42.071604 24.3427417 42.08070801 25.4979834 42.09008789 26.68823242 C42.09258545 27.60967041 42.09508301 28.5311084 42.09765625 29.48046875 C42.10289307 30.41785889 42.10812988 31.35524902 42.11352539 32.32104492 C41.99910294 35.02116868 41.75906648 37.40376029 41 40 C38.4375 41.3125 38.4375 41.3125 36 42 C32.98318426 37.25928955 30.77597137 32.32791412 29 27 C25.04 27 21.08 27 17 27 C17 26.34 17 25.68 17 25 C14.36 24.34 11.72 23.68 9 23 C8.67 21.35 8.34 19.7 8 18 C7.36191406 17.79503906 6.72382812 17.59007813 6.06640625 17.37890625 C5.24011719 17.10949219 4.41382812 16.84007813 3.5625 16.5625 C2.73878906 16.29566406 1.91507812 16.02882813 1.06640625 15.75390625 C-1 15 -1 15 -2 14 C-2.07226502 12.14712498 -2.0838122 10.29166122 -2.0625 8.4375 C-2.05347656 7.42558594 -2.04445313 6.41367188 -2.03515625 5.37109375 C-2.02355469 4.58863281 -2.01195313 3.80617188 -2 3 C-1.34 3 -0.68 3 0 3 C0 2.01 0 1.02 0 0 Z " fill="#CD17F5" transform="translate(111,90)"/>
<path d="M0 0 C0.33 0 0.66 0 1 0 C1.01981934 0.75095947 1.03963867 1.50191895 1.06005859 2.27563477 C1.15579401 5.70491957 1.26527633 9.13363542 1.375 12.5625 C1.4059375 13.74392578 1.436875 14.92535156 1.46875 16.14257812 C1.68210987 24.77555905 1.68210987 24.77555905 4 33 C4.99 33.33 5.98 33.66 7 34 C8.35827971 35.64639965 9.69254251 37.31295807 11 39 C11.66 39.33 12.32 39.66 13 40 C13 40.66 13 41.32 13 42 C13.78246094 42.20496094 14.56492187 42.40992188 15.37109375 42.62109375 C16.38300781 42.89050781 17.39492187 43.15992188 18.4375 43.4375 C19.44683594 43.70433594 20.45617187 43.97117188 21.49609375 44.24609375 C24 45 24 45 25 46 C25.04063832 47.66617115 25.042721 49.33388095 25 51 C25.94875 51.144375 26.8975 51.28875 27.875 51.4375 C31 52 31 52 33 53 C33 53.66 33 54.32 33 55 C33.66386719 54.86980469 34.32773438 54.73960938 35.01171875 54.60546875 C42.238672 53.476587 42.238672 53.476587 46 56.0625 C48.01876483 59.02756084 49.01023636 61.5738951 50 65 C50.99 65.99 50.99 65.99 52 67 C52 67.99 52 68.98 52 70 C52.99 70.495 52.99 70.495 54 71 C53 72 53 72 50.4375 72.0625 C49.633125 72.041875 48.82875 72.02125 48 72 C48 71.34 48 70.68 48 70 C47.01 70 46.02 70 45 70 C43.43560486 65.11126518 43 62.39277414 43 57 C34.75 57 26.5 57 18 57 C18 56.01 18 55.02 18 54 C16.68 54 15.36 54 14 54 C13.505 52.515 13.505 52.515 13 51 C11.02 51 9.04 51 7 51 C7 50.01 7 49.02 7 48 C6.34 48 5.68 48 5 48 C5 47.34 5 46.68 5 46 C3.68 46 2.36 46 1 46 C-0.05476516 40.83931509 -0.12969365 35.90287993 -0.09765625 30.6640625 C-0.0962413 29.78471039 -0.09482635 28.90535828 -0.09336853 27.99935913 C-0.08779877 25.20787058 -0.0752519 22.41646406 -0.0625 19.625 C-0.05748109 17.72526158 -0.05291887 15.8255219 -0.04882812 13.92578125 C-0.03783925 9.28382286 -0.02059557 4.64192531 0 0 Z " fill="#8D1BA7" transform="translate(95,62)"/>
<path d="M0 0 C0 17.82 0 35.64 0 54 C-0.33 54 -0.66 54 -1 54 C-1.495 40.14 -1.495 40.14 -2 26 C-2.66 26.33 -3.32 26.66 -4 27 C-4 25.35 -4 23.7 -4 22 C-4.99 22 -5.98 22 -7 22 C-7 21.01 -7 20.02 -7 19 C-10.74181875 18.11957206 -14.16416241 17.95749764 -18 18 C-18.05501572 23.97837512 -18.05737462 29.95366959 -18.01220703 35.93212891 C-18.00412603 37.96304673 -18.01010922 39.99407346 -18.03076172 42.02490234 C-18.55117708 53.51820408 -18.55117708 53.51820408 -15.15234375 64.16015625 C-13.19307637 66.11942363 -11.40163651 67.63232545 -9 69 C-12.54246993 69 -13.09376198 68.4753339 -15.63378906 66.1496582 C-19.94115501 61.62474208 -19.99071699 57.63616886 -19.859375 51.60546875 C-19.86132874 50.61807205 -19.86328247 49.63067535 -19.86529541 48.61335754 C-19.8613089 46.53144438 -19.8401213 44.44950118 -19.80273438 42.36791992 C-19.75031706 39.20662178 -19.76155014 36.05025356 -19.78125 32.88867188 C-19.76942873 30.85674514 -19.75392281 28.82483584 -19.734375 26.79296875 C-19.73822205 25.86034714 -19.74206909 24.92772552 -19.74603271 23.96684265 C-19.57314737 16.98171813 -17.53722811 11.98869479 -14 6 C-13.34 6 -12.68 6 -12 6 C-12 5.34 -12 4.68 -12 4 C-10.75539217 3.32332002 -9.50403104 2.65905281 -8.25 2 C-7.55390625 1.62875 -6.8578125 1.2575 -6.140625 0.875 C-4 0 -4 0 0 0 Z " fill="#36388B" transform="translate(93,62)"/>
<path d="M0 0 C1.20628008 2.33214148 2.1654738 4.49642139 3 7 C4.65 6.67 6.3 6.34 8 6 C8.33 6.66 8.66 7.32 9 8 C9.66 8 10.32 8 11 8 C11 5.36 11 2.72 11 0 C12.5 1.0625 12.5 1.0625 14 3 C14.1875 6.6875 14.1875 6.6875 14 10 C15.32 10.33 16.64 10.66 18 11 C18.66796875 12.78125 18.66796875 12.78125 19 15 C17.92578125 16.78125 17.92578125 16.78125 16.3125 18.5 C15.75433594 19.098125 15.19617188 19.69625 14.62109375 20.3125 C14.08613281 20.869375 13.55117187 21.42625 13 22 C11.948125 23.2375 11.948125 23.2375 10.875 24.5 C9 26 9 26 7.1484375 25.80859375 C2.73639319 24.14806071 -0.35913768 20.82361819 -3 17 C-4.26899483 11.49256243 -3.24178668 6.14292237 -1 1 C-0.67 0.67 -0.34 0.34 0 0 Z " fill="#0DBEE8" transform="translate(78,106)"/>
<path d="M0 0 C0.72160812 0.00470306 1.44321625 0.00940613 2.18669128 0.01425171 C4.4731194 0.03546866 6.75716751 0.09204557 9.04296875 0.1484375 C10.59698341 0.16495751 12.1510228 0.17930225 13.70507812 0.19140625 C25.03425815 0.3272269 25.03425815 0.3272269 26.23046875 1.5234375 C26.32907006 2.92692485 26.36125812 4.33524227 26.36328125 5.7421875 C26.36521484 7.01642578 26.36521484 7.01642578 26.3671875 8.31640625 C26.36332031 9.20972656 26.35945313 10.10304687 26.35546875 11.0234375 C26.36126953 12.36341797 26.36126953 12.36341797 26.3671875 13.73046875 C26.36589844 14.57996094 26.36460937 15.42945313 26.36328125 16.3046875 C26.36215332 17.08908203 26.36102539 17.87347656 26.35986328 18.68164062 C26.23046875 20.5234375 26.23046875 20.5234375 25.23046875 21.5234375 C22.16304028 21.63706718 19.1189873 21.68762982 16.05078125 21.69140625 C15.12707733 21.69473465 14.20337341 21.69806305 13.25167847 21.70149231 C11.29295349 21.70656608 9.33421983 21.7089005 7.37548828 21.70874023 C4.37518054 21.71092316 1.37524242 21.72906424 -1.625 21.74804688 C-3.52473832 21.75098138 -5.4244784 21.75296579 -7.32421875 21.75390625 C-8.22429657 21.76109177 -9.12437439 21.76827728 -10.05172729 21.77568054 C-10.88914459 21.77260391 -11.72656189 21.76952728 -12.58935547 21.76635742 C-13.69402664 21.76849495 -13.69402664 21.76849495 -14.8210144 21.77067566 C-16.76953125 21.5234375 -16.76953125 21.5234375 -19.76953125 19.5234375 C-19.76953125 18.8634375 -19.76953125 18.2034375 -19.76953125 17.5234375 C-20.42953125 17.5234375 -21.08953125 17.5234375 -21.76953125 17.5234375 C-21.26212663 13.12593078 -18.68659811 10.65394828 -15.76953125 7.5234375 C-15.10953125 7.5234375 -14.44953125 7.5234375 -13.76953125 7.5234375 C-13.76953125 6.8634375 -13.76953125 6.2034375 -13.76953125 5.5234375 C-9.40111604 1.01971552 -6.31859661 -0.20827742 0 0 Z M-7.76953125 1.5234375 C-8.09953125 2.8434375 -8.42953125 4.1634375 -8.76953125 5.5234375 C-9.75953125 5.8534375 -10.74953125 6.1834375 -11.76953125 6.5234375 C-11.43953125 8.5034375 -11.10953125 10.4834375 -10.76953125 12.5234375 C-10.10953125 12.5234375 -9.44953125 12.5234375 -8.76953125 12.5234375 C-8.76953125 13.1834375 -8.76953125 13.8434375 -8.76953125 14.5234375 C-9.75953125 14.1934375 -10.74953125 13.8634375 -11.76953125 13.5234375 C-13.123858 14.83544154 -14.45686607 16.16975154 -15.76953125 17.5234375 C-15.76953125 17.8534375 -15.76953125 18.1834375 -15.76953125 18.5234375 C-15.16890869 18.51820068 -14.56828613 18.51296387 -13.94946289 18.50756836 C-11.24366287 18.48685736 -8.53787948 18.47379625 -5.83203125 18.4609375 C-4.88650391 18.45255859 -3.94097656 18.44417969 -2.96679688 18.43554688 C-1.61811523 18.43071289 -1.61811523 18.43071289 -0.2421875 18.42578125 C1.00679321 18.41792603 1.00679321 18.41792603 2.28100586 18.40991211 C4.23046875 18.5234375 4.23046875 18.5234375 5.23046875 19.5234375 C6.64616998 19.60995361 8.06606375 19.63048654 9.484375 19.62109375 C10.33837891 19.61787109 11.19238281 19.61464844 12.07226562 19.61132812 C13.41901367 19.59875977 13.41901367 19.59875977 14.79296875 19.5859375 C16.14551758 19.57916992 16.14551758 19.57916992 17.52539062 19.57226562 C19.76044464 19.56043994 21.99546477 19.54250388 24.23046875 19.5234375 C24.23046875 13.5834375 24.23046875 7.6434375 24.23046875 1.5234375 C13.67046875 1.5234375 3.11046875 1.5234375 -7.76953125 1.5234375 Z " fill="#12C0E7" transform="translate(109.76953125,120.4765625)"/>
<path d="M0 0 C3.3 0 6.6 0 10 0 C10 1.32 10 2.64 10 4 C10.99 4 11.98 4 13 4 C13.02687279 5.81242052 13.04633715 7.62495233 13.0625 9.4375 C13.07410156 10.44683594 13.08570312 11.45617187 13.09765625 12.49609375 C13 15 13 15 12 16 C10.58429877 16.08651611 9.164405 16.10704904 7.74609375 16.09765625 C6.89208984 16.09443359 6.03808594 16.09121094 5.15820312 16.08789062 C4.26037109 16.07951172 3.36253906 16.07113281 2.4375 16.0625 C1.53580078 16.05798828 0.63410156 16.05347656 -0.29492188 16.04882812 C-2.53001314 16.03700225 -4.76497437 16.0205222 -7 16 C-6 13 -6 13 -4.0625 11.75 C-3.381875 11.5025 -2.70125 11.255 -2 11 C-1.34 11.33 -0.68 11.66 0 12 C0 11.34 0 10.68 0 10 C-0.66 10 -1.32 10 -2 10 C-2.33 8.02 -2.66 6.04 -3 4 C-2.01 3.67 -1.02 3.34 0 3 C0 2.01 0 1.02 0 0 Z " fill="#0ABDEF" transform="translate(101,123)"/>
<path d="M0 0 C0.99 0.33 1.98 0.66 3 1 C3 1.66 3 2.32 3 3 C4.17369141 3.30744141 4.17369141 3.30744141 5.37109375 3.62109375 C6.88896484 4.02521484 6.88896484 4.02521484 8.4375 4.4375 C9.95150391 4.83775391 9.95150391 4.83775391 11.49609375 5.24609375 C14 6 14 6 15 7 C15.04063832 8.66617115 15.042721 10.33388095 15 12 C16.423125 12.2165625 16.423125 12.2165625 17.875 12.4375 C21 13 21 13 23 14 C23 14.66 23 15.32 23 16 C23.99580078 15.80470703 23.99580078 15.80470703 25.01171875 15.60546875 C32.238672 14.476587 32.238672 14.476587 36 17.0625 C38.01876483 20.02756084 39.01023636 22.5738951 40 26 C40.66 26.66 41.32 27.32 42 28 C42 28.99 42 29.98 42 31 C42.66 31.33 43.32 31.66 44 32 C43 33 43 33 40.4375 33.0625 C39.633125 33.041875 38.82875 33.02125 38 33 C38 32.34 38 31.68 38 31 C37.01 31 36.02 31 35 31 C33.54815522 26.46298506 32.76490804 22.81938524 33 18 C31.98292969 18.03480469 31.98292969 18.03480469 30.9453125 18.0703125 C24.35832764 18.19803797 18.39889559 17.55461238 12 16 C11.67 13.69 11.34 11.38 11 9 C10.2575 8.87625 9.515 8.7525 8.75 8.625 C4.36332389 7.62802816 2.53339359 6.80009038 0 3 C0 2.01 0 1.02 0 0 Z " fill="#8D20C1" transform="translate(105,101)"/>
<path d="M0 0 C0.33 0 0.66 0 1 0 C1 3.96 1 7.92 1 12 C14.53 12 28.06 12 42 12 C42.020625 15.691875 42.04125 19.38375 42.0625 23.1875 C42.071604 24.3427417 42.08070801 25.4979834 42.09008789 26.68823242 C42.09258545 27.60967041 42.09508301 28.5311084 42.09765625 29.48046875 C42.10289307 30.41785889 42.10812988 31.35524902 42.11352539 32.32104492 C41.99910294 35.02116868 41.75906648 37.40376029 41 40 C38.4375 41.3125 38.4375 41.3125 36 42 C35.01 40.02 34.02 38.04 33 36 C34.32 34.68 35.64 33.36 37 32 C37.66 33.98 38.32 35.96 39 38 C39.72413373 34.68856994 40.16354255 31.52155779 40.31640625 28.13671875 C40.37924805 26.80737305 40.37924805 26.80737305 40.44335938 25.45117188 C40.48267578 24.53916016 40.52199219 23.62714844 40.5625 22.6875 C40.62727539 21.29047852 40.62727539 21.29047852 40.69335938 19.86523438 C40.79897225 17.57695546 40.90107752 15.28857628 41 13 C36.78188503 13.06887495 32.56472995 13.15683738 28.34741211 13.26245117 C26.91295372 13.29569001 25.47836487 13.32372535 24.04370117 13.34643555 C21.98039193 13.38000271 19.91827697 13.43231413 17.85546875 13.48828125 C15.99378052 13.52755737 15.99378052 13.52755737 14.09448242 13.56762695 C10.76287231 14.0331324 10.0531177 14.48999479 8 17 C5.03580888 17.46803018 3.06786136 17.01960439 0.1875 16.1875 C-2 14 -2 14 -2.3125 11.3515625 C-2.3125 8.55110237 -2.21329684 5.7918186 -2 3 C-1.34 3 -0.68 3 0 3 C0 2.01 0 1.02 0 0 Z " fill="#C024E0" transform="translate(111,90)"/>
<path d="M0 0 C4.68139254 -0.02465288 9.36274759 -0.04283739 14.04418945 -0.05493164 C15.63794614 -0.05997157 17.23169819 -0.0668035 18.82543945 -0.07543945 C21.11150253 -0.08751999 23.39750467 -0.09323155 25.68359375 -0.09765625 C26.40026718 -0.10281754 27.11694061 -0.10797882 27.85533142 -0.11329651 C29.57063672 -0.11349263 31.28581266 -0.06192007 33 0 C34.55606751 1.55606751 34.12970769 3.05957371 34.1328125 5.21875 C34.13474609 6.49298828 34.13474609 6.49298828 34.13671875 7.79296875 C34.13285156 8.68628906 34.12898438 9.57960937 34.125 10.5 C34.13080078 11.83998047 34.13080078 11.83998047 34.13671875 13.20703125 C34.13542969 14.05652344 34.13414062 14.90601563 34.1328125 15.78125 C34.13168457 16.56564453 34.13055664 17.35003906 34.12939453 18.15820312 C34 20 34 20 33 21 C29.89748799 21.08874135 26.8173188 21.11518455 23.71484375 21.09765625 C22.78402481 21.0962413 21.85320587 21.09482635 20.8941803 21.09336853 C17.90858809 21.08775172 14.92306971 21.0751964 11.9375 21.0625 C9.91862087 21.05748716 7.89974057 21.05292388 5.88085938 21.04882812 C0.92054428 21.03777683 -4.03971532 21.02050095 -9 21 C-9 20.67 -9 20.34 -9 20 C4.67293655 19.41585909 18.3132995 18.8543968 32 19 C32 13.06 32 7.12 32 1 C21.44 1 10.88 1 0 1 C0 0.67 0 0.34 0 0 Z " fill="#16264A" transform="translate(102,121)"/>
<path d="M0 0 C0 4.62 0 9.24 0 14 C-0.33 13.34 -0.66 12.68 -1 12 C-2.98 12 -4.96 12 -7 12 C-7 11.34 -7 10.68 -7 10 C-7.66 10 -8.32 10 -9 10 C-9.33 9.34 -9.66 8.68 -10 8 C-10.61875 8.309375 -11.2375 8.61875 -11.875 8.9375 C-13.25 9.625 -14.625 10.3125 -16 11 C-15.34 9.35 -14.68 7.7 -14 6 C-13.34 6 -12.68 6 -12 6 C-12 5.34 -12 4.68 -12 4 C-10.75539217 3.32332002 -9.50403104 2.65905281 -8.25 2 C-7.55390625 1.62875 -6.8578125 1.2575 -6.140625 0.875 C-4 0 -4 0 0 0 Z " fill="#551395" transform="translate(93,62)"/>
<path d="M0 0 C0 0.99 0 1.98 0 3 C0.99 3 1.98 3 3 3 C3.99 4.485 3.99 4.485 5 6 C5.33 6.33 5.66 6.66 6 7 C6.07271741 9.35313555 6.08370868 11.70833668 6.0625 14.0625 C6.05347656 15.35285156 6.04445313 16.64320312 6.03515625 17.97265625 C6.02355469 18.97167969 6.01195313 19.97070312 6 21 C2.6133733 16.9687339 2.4285983 14.14317962 2 9 C1.01 8.67 0.02 8.34 -1 8 C-1 6.68 -1 5.36 -1 4 C-1.66 4 -2.32 4 -3 4 C-4.625 2.5 -4.625 2.5 -6 1 C-6.99 1.33 -7.98 1.66 -9 2 C-8.979375 3.216875 -8.95875 4.43375 -8.9375 5.6875 C-8.93175884 8.91977322 -9.21233685 11.84934741 -10 15 C-10.33 15 -10.66 15 -11 15 C-11 9.72 -11 4.44 -11 -1 C-4.25 -2.125 -4.25 -2.125 0 0 Z " fill="#705DE2" transform="translate(86,81)"/>
<path d="M0 0 C0.99 0.33 1.98 0.66 3 1 C3 1.66 3 2.32 3 3 C3.66 3 4.32 3 5 3 C5 3.66 5 4.32 5 5 C6.98 5 8.96 5 11 5 C12.69196504 8.38393008 12.11986549 12.22477791 12.09765625 15.9453125 C12.0962413 16.8303244 12.09482635 17.7153363 12.09336853 18.62716675 C12.0877614 21.45981191 12.07520771 24.29237864 12.0625 27.125 C12.05748592 29.04296761 12.05292285 30.96093646 12.04882812 32.87890625 C12.03778966 37.58596782 12.02052025 42.2929706 12 47 C11.67 47 11.34 47 11 47 C11 35.12 11 23.24 11 11 C8.525 10.01 8.525 10.01 6 9 C5.34 8.34 4.68 7.68 4 7 C4 6.01 4 5.02 4 4 C2.35 3.67 0.7 3.34 -1 3 C-1.33 4.32 -1.66 5.64 -2 7 C-2.99 7 -3.98 7 -5 7 C-5.33 7.66 -5.66 8.32 -6 9 C-5.52797514 4.75177626 -3.03344482 2.80010291 0 0 Z " fill="#483797" transform="translate(81,69)"/>
<path d="M0 0 C1.20628008 2.33214148 2.1654738 4.49642139 3 7 C4.65 6.67 6.3 6.34 8 6 C8.33 6.66 8.66 7.32 9 8 C9.66 8 10.32 8 11 8 C11 5.36 11 2.72 11 0 C12.5 1.0625 12.5 1.0625 14 3 C14.1875 6.6875 14.1875 6.6875 14 10 C14.66 10 15.32 10 16 10 C16 10.66 16 11.32 16 12 C10.06 11.01 4.12 10.02 -2 9 C-2 11.64 -2 14.28 -2 17 C-2.33 17 -2.66 17 -3 17 C-3.2031621 11.28888766 -3.33039979 6.34621127 -1 1 C-0.67 0.67 -0.34 0.34 0 0 Z " fill="#35B0F8" transform="translate(78,106)"/>
<path d="M0 0 C2.475 0.99 2.475 0.99 5 2 C5 2.99 5 3.98 5 5 C6.1446875 5.185625 6.1446875 5.185625 7.3125 5.375 C10 6 10 6 13 8 C13 8.66 13 9.32 13 10 C13.99 10 14.98 10 16 10 C16.99 11.485 16.99 11.485 18 13 C22.16879572 15.2070095 26.37404105 15.5295635 31 16 C31 16.33 31 16.66 31 17 C26.38 17 21.76 17 17 17 C17 16.01 17 15.02 17 14 C15.68 14 14.36 14 13 14 C12.67 13.01 12.34 12.02 12 11 C10.02 11 8.04 11 6 11 C6 10.01 6 9.02 6 8 C5.34 8 4.68 8 4 8 C4 7.34 4 6.68 4 6 C2.68 6 1.36 6 0 6 C0 4.02 0 2.04 0 0 Z " fill="#7016A4" transform="translate(96,102)"/>
<path d="M0 0 C0 0.66 0 1.32 0 2 C-5.94 2 -11.88 2 -18 2 C-17.93117745 8.62065344 -17.84323601 15.24067206 -17.73754883 21.86083984 C-17.70428976 24.1130469 -17.67626092 26.36533751 -17.65356445 28.61767578 C-17.62003704 31.85485446 -17.56772112 35.0912668 -17.51171875 38.328125 C-17.50532883 39.33554749 -17.4989389 40.34296997 -17.49235535 41.38092041 C-17.47256119 42.32159363 -17.45276703 43.26226685 -17.43237305 44.23144531 C-17.41571846 45.47054657 -17.41571846 45.47054657 -17.39872742 46.73468018 C-16.91360165 49.49086138 -15.73525853 50.84772074 -14 53 C-14 53.66 -14 54.32 -14 55 C-14.66 55 -15.32 55 -16 55 C-16.66 54.01 -17.32 53.02 -18 52 C-18.66 53.32 -19.32 54.64 -20 56 C-19.67 37.85 -19.34 19.7 -19 1 C-4 0 -4 0 0 0 Z " fill="#330434" transform="translate(113,60)"/>
<path d="M0 0 C0.33 0 0.66 0 1 0 C1 1.98 1 3.96 1 6 C2.32 6 3.64 6 5 6 C5 6.66 5 7.32 5 8 C5.66 8 6.32 8 7 8 C7 8.99 7 9.98 7 11 C8.98 10.67 10.96 10.34 13 10 C13.33 11.32 13.66 12.64 14 14 C15.32 14 16.64 14 18 14 C18 14.99 18 15.98 18 17 C10.25 17.125 10.25 17.125 8 16 C8 15.34 8 14.68 8 14 C7.13375 13.938125 7.13375 13.938125 6.25 13.875 C2.70820775 12.49763635 1.71587719 10.30919173 0 7 C-0.25 3.125 -0.25 3.125 0 0 Z " fill="#590F85" transform="translate(95,102)"/>
<path d="M0 0 C0.99 0.33 1.98 0.66 3 1 C3 1.66 3 2.32 3 3 C4.17369141 3.30744141 4.17369141 3.30744141 5.37109375 3.62109375 C6.88896484 4.02521484 6.88896484 4.02521484 8.4375 4.4375 C9.95150391 4.83775391 9.95150391 4.83775391 11.49609375 5.24609375 C14 6 14 6 15 7 C15.04063832 8.66617115 15.042721 10.33388095 15 12 C16.423125 12.2165625 16.423125 12.2165625 17.875 12.4375 C21 13 21 13 23 14 C23 14.66 23 15.32 23 16 C22.01 16 21.02 16 20 16 C20 15.34 20 14.68 20 14 C17.36 13.67 14.72 13.34 12 13 C11.67 11.68 11.34 10.36 11 9 C10.2575 8.87625 9.515 8.7525 8.75 8.625 C4.36332389 7.62802816 2.53339359 6.80009038 0 3 C0 2.01 0 1.02 0 0 Z " fill="#981AD2" transform="translate(105,101)"/>
<path d="M0 0 C5.28 0 10.56 0 16 0 C16 3.96 16 7.92 16 12 C15.67 11.34 15.34 10.68 15 10 C14.34 10 13.68 10 13 10 C13.33 7.36 13.66 4.72 14 2 C10.7 2 7.4 2 4 2 C2.93453047 5.1964086 2.92572162 7.65747276 3 11 C2.01 10.67 1.02 10.34 0 10 C0 6.7 0 3.4 0 0 Z " fill="#EB1D91" transform="translate(96,62)"/>
<path d="M0 0 C0.33 0 0.66 0 1 0 C1.33 2.31 1.66 4.62 2 7 C2.99 7 3.98 7 5 7 C5 7.66 5 8.32 5 9 C8.68754757 8.50168276 10.60490662 7.89932357 13 5 C11.73461332 8.90160892 10.65525211 11.02418805 7 13 C3.25 13.6875 3.25 13.6875 0 14 C0 9.38 0 4.76 0 0 Z " fill="#571285" transform="translate(138,125)"/>
<path d="M0 0 C0.99 0.495 0.99 0.495 2 1 C2 1.66 2 2.32 2 3 C2.598125 3.268125 3.19625 3.53625 3.8125 3.8125 C6.01819033 5.00987475 7.43583187 6.04478984 9 8 C9 8.99 9 9.98 9 11 C9.66 11.33 10.32 11.66 11 12 C10 13 10 13 7.4375 13.0625 C6.633125 13.041875 5.82875 13.02125 5 13 C5 12.34 5 11.68 5 11 C4.01 11 3.02 11 2 11 C0.80712589 7.12315913 0 4.08378077 0 0 Z " fill="#8F19C3" transform="translate(138,121)"/>
<path d="M0 0 C0.99 0.66 1.98 1.32 3 2 C2.33076763 7.80001388 -2.99381212 12.14218945 -7 16 C-7.66 15.67 -8.32 15.34 -9 15 C-8.67 12.69 -8.34 10.38 -8 8 C-6.02 7.67 -4.04 7.34 -2 7 C-2 6.34 -2 5.68 -2 5 C-1.34 5 -0.68 5 0 5 C0 3.35 0 1.7 0 0 Z " fill="#197493" transform="translate(94,116)"/>
<path d="M0 0 C-0.33 1.32 -0.66 2.64 -1 4 C-3 4 -3 4 -4.625 2.5 C-5.07875 2.005 -5.5325 1.51 -6 1 C-6.99 1.33 -7.98 1.66 -9 2 C-8.979375 3.216875 -8.95875 4.43375 -8.9375 5.6875 C-8.93175884 8.91977322 -9.21233685 11.84934741 -10 15 C-10.33 15 -10.66 15 -11 15 C-11 9.72 -11 4.44 -11 -1 C-4.25 -2.125 -4.25 -2.125 0 0 Z " fill="#755DE6" transform="translate(86,81)"/>
<path d="M0 0 C0 4.62 0 9.24 0 14 C-0.33 14 -0.66 14 -1 14 C-1 10.04 -1 6.08 -1 2 C-6.45111321 4.58210626 -11.17518523 7.38138892 -16 11 C-15.34 9.35 -14.68 7.7 -14 6 C-13.34 6 -12.68 6 -12 6 C-12 5.34 -12 4.68 -12 4 C-10.75539217 3.32332002 -9.50403104 2.65905281 -8.25 2 C-7.55390625 1.62875 -6.8578125 1.2575 -6.140625 0.875 C-4 0 -4 0 0 0 Z " fill="#2B0F50" transform="translate(93,62)"/>
<path d="M0 0 C0.99 0.495 0.99 0.495 2 1 C2.625 4.0625 2.625 4.0625 3 7 C3.99 7.33 4.98 7.66 6 8 C7.6875 10.5625 7.6875 10.5625 9 13 C3.51923077 13.36538462 3.51923077 13.36538462 1.3125 11.8125 C-0.45312631 9.37425415 -0.30348915 7.78955493 -0.1875 4.8125 C-0.16042969 3.91144531 -0.13335937 3.01039062 -0.10546875 2.08203125 C-0.07066406 1.39496094 -0.03585938 0.70789063 0 0 Z " fill="#AA1ED9" transform="translate(96,88)"/>
<path d="M0 0 C1.5 1.0625 1.5 1.0625 3 3 C3.1875 6.6875 3.1875 6.6875 3 10 C3.66 10 4.32 10 5 10 C5 10.66 5 11.32 5 12 C0.71 11.34 -3.58 10.68 -8 10 C-8 9.34 -8 8.68 -8 8 C-5.36 8 -2.72 8 0 8 C0 5.36 0 2.72 0 0 Z " fill="#2AAFED" transform="translate(89,106)"/>
<path d="M0 0 C1 2 1 2 1 7 C14.365 7.495 14.365 7.495 28 8 C28 8.33 28 8.66 28 9 C18.76 9 9.52 9 0 9 C-0.33 8.01 -0.66 7.02 -1 6 C-1.66 6 -2.32 6 -3 6 C-2.42655063 3.13275314 -2.1385485 2.1385485 0 0 Z " fill="#308BB0" transform="translate(91,132)"/>
<path d="M0 0 C2.00461299 0.65266469 4.00379834 1.32204472 6 2 C6.928125 2.2475 7.85625 2.495 8.8125 2.75 C9.534375 3.1625 10.25625 3.575 11 4 C11.8125 7.125 11.8125 7.125 12 10 C10.0625 9.6875 10.0625 9.6875 8 9 C7.67 8.01 7.34 7.02 7 6 C6.01 6 5.02 6 4 6 C4 5.34 4 4.68 4 4 C2.68 3.34 1.36 2.68 0 2 C0 1.34 0 0.68 0 0 Z " fill="#8618C2" transform="translate(105,106)"/>
<path d="M0 0 C0.33 0 0.66 0 1 0 C0.67 3.63 0.34 7.26 0 11 C-1.65 11.66 -3.3 12.32 -5 13 C-5.99 11.02 -6.98 9.04 -8 7 C-6.68 5.68 -5.36 4.36 -4 3 C-3.34 4.98 -2.68 6.96 -2 9 C-1.34 6.03 -0.68 3.06 0 0 Z " fill="#A41ED0" transform="translate(152,119)"/>
<path d="M0 0 C2.375 0.25 2.375 0.25 5 1 C5.70151152 2.3153341 6.36525925 3.65117592 7 5 C9.53188648 6.75322937 9.53188648 6.75322937 12 8 C11.67 9.32 11.34 10.64 11 12 C11 11.34 11 10.68 11 10 C10.01 10 9.02 10 8 10 C8 9.34 8 8.68 8 8 C7.01 8 6.02 8 5 8 C5 7.01 5 6.02 5 5 C3.35 4.67 1.7 4.34 0 4 C0 2.68 0 1.36 0 0 Z " fill="#6B35C1" transform="translate(80,72)"/>
<path d="M0 0 C2.10478604 0.11409682 4.20884577 0.24165361 6.3125 0.375 C7.48425781 0.44460937 8.65601562 0.51421875 9.86328125 0.5859375 C13 1 13 1 16 3 C11.06475055 3.69889153 6.90138325 4.18821412 2 3 C1.01 3.495 1.01 3.495 0 4 C0 2.68 0 1.36 0 0 Z " fill="#17B7F1" transform="translate(76,115)"/>
<path d="M0 0 C2 1.8125 2 1.8125 3 4 C2.6875 6.25 2.6875 6.25 2 8 C0 6.1875 0 6.1875 -2 4 C-2 3.01 -2 2.02 -2 1 C-5.3 1 -8.6 1 -12 1 C-12 0.67 -12 0.34 -12 0 C-7.73535153 -1.16308595 -4.29816997 -1.03474462 0 0 Z " fill="#AA1DDC" transform="translate(140,117)"/>
<path d="M0 0 C3.3 0 6.6 0 10 0 C10 1.65 10 3.3 10 5 C8.02 5.99 8.02 5.99 6 7 C5.67 5.68 5.34 4.36 5 3 C3.35 2.67 1.7 2.34 0 2 C0 1.34 0 0.68 0 0 Z " fill="#28B7F4" transform="translate(101,123)"/>
<path d="M0 0 C0.99 0.33 1.98 0.66 3 1 C3 2.65 3 4.3 3 6 C4.423125 6.2165625 4.423125 6.2165625 5.875 6.4375 C9 7 9 7 11 8 C11 8.66 11 9.32 11 10 C10.01 10 9.02 10 8 10 C8 9.34 8 8.68 8 8 C5.36 7.67 2.72 7.34 0 7 C0 4.69 0 2.38 0 0 Z " fill="#9F18DB" transform="translate(117,107)"/>
<path d="M0 0 C0 3.3 0 6.6 0 10 C-0.66 10 -1.32 10 -2 10 C-2.33 8.02 -2.66 6.04 -3 4 C-4.65 4 -6.3 4 -8 4 C-5.29881977 1.17603885 -4.05589853 0 0 0 Z " fill="#46157C" transform="translate(92,64)"/>
<path d="M0 0 C0.99 0.33 1.98 0.66 3 1 C3 1.66 3 2.32 3 3 C3.66 3 4.32 3 5 3 C4.67 3.66 4.34 4.32 4 5 C1.525 4.01 1.525 4.01 -1 3 C-1.33 4.32 -1.66 5.64 -2 7 C-2.99 7 -3.98 7 -5 7 C-5.33 7.66 -5.66 8.32 -6 9 C-5.52797514 4.75177626 -3.03344482 2.80010291 0 0 Z " fill="#54249F" transform="translate(81,69)"/>
<path d="M0 0 C0.33 0 0.66 0 1 0 C1 4.62 1 9.24 1 14 C-1.97 14 -4.94 14 -8 14 C-8 13.67 -8 13.34 -8 13 C-6.02 13 -4.04 13 -2 13 C-1.34 8.71 -0.68 4.42 0 0 Z " fill="#6295F5" transform="translate(133,126)"/>
<path d="M0 0 C0.33 0 0.66 0 1 0 C1.28875 1.2375 1.5775 2.475 1.875 3.75 C2.61334794 6.72448742 3.44474933 9.333856 5 12 C4.34 12 3.68 12 3 12 C2.34 11.01 1.68 10.02 1 9 C0.34 10.32 -0.32 11.64 -1 13 C-1.02696365 11.20841511 -1.04637917 9.41671527 -1.0625 7.625 C-1.07410156 6.62726563 -1.08570312 5.62953125 -1.09765625 4.6015625 C-1 2 -1 2 0 0 Z " fill="#130B34" transform="translate(94,103)"/>
<path d="M0 0 C0.763125 0.309375 1.52625 0.61875 2.3125 0.9375 C4.18789677 1.67893593 6.08684652 2.36228217 8 3 C8.33 3.66 8.66 4.32 9 5 C12.02934491 5.65772428 12.02934491 5.65772428 15 6 C15 6.33 15 6.66 15 7 C7.25 7.125 7.25 7.125 5 6 C5 5.34 5 4.68 5 4 C4.360625 3.896875 3.72125 3.79375 3.0625 3.6875 C2.381875 3.460625 1.70125 3.23375 1 3 C0.67 2.01 0.34 1.02 0 0 Z " fill="#4B1379" transform="translate(98,112)"/>
<path d="M0 0 C2.475 0.495 2.475 0.495 5 1 C5 1.99 5 2.98 5 4 C6.32 4 7.64 4 9 4 C9 4.66 9 5.32 9 6 C7.02 6 5.04 6 3 6 C2.01 4.02 1.02 2.04 0 0 Z " fill="#601098" transform="translate(104,112)"/>
<path d="M0 0 C0.66 0.33 1.32 0.66 2 1 C0.87952194 4.36143418 -0.49707183 5.57528834 -3 8 C-3.33 8.66 -3.66 9.32 -4 10 C-5.32 9.67 -6.64 9.34 -8 9 C-7.34 8.01 -6.68 7.02 -6 6 C-5.34 6 -4.68 6 -4 6 C-4 5.34 -4 4.68 -4 4 C-2.70766393 2.62689293 -1.37562854 1.28965176 0 0 Z " fill="#157391" transform="translate(100,122)"/>
<path d="M0 0 C0.99 0 1.98 0 3 0 C3 0.66 3 1.32 3 2 C3.99 2 4.98 2 6 2 C6.33 3.98 6.66 5.96 7 8 C6.01 8.33 5.02 8.66 4 9 C4 7.35 4 5.7 4 4 C3.01 4 2.02 4 1 4 C0.67 2.68 0.34 1.36 0 0 Z " fill="#6E49D4" transform="translate(85,80)"/>
<path d="M0 0 C2.10633718 1.70828921 2.93801608 2.52148416 3.29296875 5.26171875 C3.25816406 6.06222656 3.22335938 6.86273438 3.1875 7.6875 C3.16042969 8.49574219 3.13335937 9.30398437 3.10546875 10.13671875 C3.07066406 10.75160156 3.03585938 11.36648437 3 12 C1.09598862 10.09598862 0.06479561 8.66574314 -0.19921875 5.953125 C-0.1886578 3.96766727 -0.09915043 1.9830086 0 0 Z " fill="#6D7BE9" transform="translate(89,90)"/>
<path d="M0 0 C0.53625 0.61875 1.0725 1.2375 1.625 1.875 C4.31103023 4.2782902 6.55414562 5.06022153 10 6 C9.67 6.66 9.34 7.32 9 8 C7.35 8 5.7 8 4 8 C4 7.34 4 6.68 4 6 C3.01 6 2.02 6 1 6 C0.67 4.02 0.34 2.04 0 0 Z " fill="#7F15B3" transform="translate(139,126)"/>
<path d="M0 0 C1.1875 1.6875 1.1875 1.6875 2 4 C0.625 6.75 0.625 6.75 -1 9 C-1.66 8.67 -2.32 8.34 -3 8 C-2.74438677 5.6568787 -2.40729228 3.32156597 -2 1 C-1.34 0.67 -0.68 0.34 0 0 Z " fill="#1696B6" transform="translate(88,123)"/>
<path d="M0 0 C1.5 1.125 1.5 1.125 3 3 C3.1875 6.1875 3.1875 6.1875 3 9 C2.01 8.67 1.02 8.34 0 8 C0 5.36 0 2.72 0 0 Z " fill="#D420D4" transform="translate(96,80)"/>
<path d="M0 0 C0.33 0.99 0.66 1.98 1 3 C0.67 3.66 0.34 4.32 0 5 C-0.66 5 -1.32 5 -2 5 C-2.33 5.66 -2.66 6.32 -3 7 C-3.99 6.34 -4.98 5.68 -6 5 C-5.67 4.34 -5.34 3.68 -5 3 C-3.68 3 -2.36 3 -1 3 C-0.67 2.01 -0.34 1.02 0 0 Z " fill="#15C1EA" transform="translate(97,129)"/>
<path d="M0 0 C1.5 1.1875 1.5 1.1875 3 3 C3.1875 5.6875 3.1875 5.6875 3 8 C2.01 8 1.02 8 0 8 C0 5.36 0 2.72 0 0 Z " fill="#4CA3F0" transform="translate(89,106)"/>
<path d="M0 0 C2.475 0.495 2.475 0.495 5 1 C5 2.32 5 3.64 5 5 C3.35 4.67 1.7 4.34 0 4 C0 2.68 0 1.36 0 0 Z " fill="#6427BF" transform="translate(80,72)"/>
<path d="M0 0 C1.23367942 2.46735884 1 4.26809601 1 7 C1.33 7.66 1.66 8.32 2 9 C1.01 8.67 0.02 8.34 -1 8 C-1 7.34 -1 6.68 -1 6 C-1.66 6 -2.32 6 -3 6 C-2.42655063 3.13275314 -2.1385485 2.1385485 0 0 Z " fill="#1A6985" transform="translate(91,132)"/>
<path d="M0 0 C4.51720311 -0.36625971 4.51720311 -0.36625971 6.8125 1.375 C8 3 8 3 8 5 C6.0625 4.6875 6.0625 4.6875 4 4 C3.67 3.01 3.34 2.02 3 1 C2.01 0.67 1.02 0.34 0 0 Z " fill="#7F15B8" transform="translate(109,111)"/>
<path d="M0 0 C2.31 0.33 4.62 0.66 7 1 C5.6875 2.5 5.6875 2.5 4 4 C3.01 4 2.02 4 1 4 C0.67 2.68 0.34 1.36 0 0 Z " fill="#B81CF0" transform="translate(115,103)"/>
<path d="M0 0 C2.475 0.99 2.475 0.99 5 2 C4.54625 2.433125 4.0925 2.86625 3.625 3.3125 C1.79975666 5.10798342 1.79975666 5.10798342 0 8 C0 5.36 0 2.72 0 0 Z " fill="#E822AD" transform="translate(96,72)"/>
</svg>
