<?xml version="1.0" encoding="UTF-8"?>
<svg version="1.1" xmlns="http://www.w3.org/2000/svg" width="387" height="340">
<path d="M0 0 C0.80179688 0.00451172 1.60359375 0.00902344 2.4296875 0.01367188 C4.41149006 0.02546832 6.39325433 0.04340395 8.375 0.0625 C9.47473766 13.41645734 9.45112662 26.66421437 9.375 40.0625 C22.575 40.0625 35.775 40.0625 49.375 40.0625 C49.478125 44.166875 49.58125 48.27125 49.6875 52.5 C49.73302002 53.77544678 49.77854004 55.05089355 49.82543945 56.36499023 C49.91481517 63.76010964 49.05698194 69.17612133 44.375 75.0625 C40.18188182 78.98716838 38.34666518 80.0625 32.375 80.0625 C32.375 73.4625 32.375 66.8625 32.375 60.0625 C29.94382813 60.07410156 27.51265625 60.08570313 25.0078125 60.09765625 C22.65804169 60.10545082 20.30827232 60.11152531 17.95849609 60.11743164 C16.32307289 60.12246621 14.6876542 60.12929427 13.05224609 60.13793945 C10.70409025 60.15004335 8.35599381 60.155737 6.0078125 60.16015625 C4.90773361 60.16789818 4.90773361 60.16789818 3.78543091 60.17579651 C-1.39725659 60.17637171 -1.39725659 60.17637171 -3.625 59.0625 C-3.625 58.4025 -3.625 57.7425 -3.625 57.0625 C-4.285 57.0625 -4.945 57.0625 -5.625 57.0625 C-5.625 56.4025 -5.625 55.7425 -5.625 55.0625 C-6.285 55.0625 -6.945 55.0625 -7.625 55.0625 C-8.285 54.0725 -8.945 53.0825 -9.625 52.0625 C-9.07776317 55.43712715 -8.5701 57.14485 -6.625 60.0625 C-7.74299986 61.40170838 -8.86961897 62.73372556 -10 64.0625 C-10.62648438 64.805 -11.25296875 65.5475 -11.8984375 66.3125 C-12.46820313 66.89 -13.03796875 67.4675 -13.625 68.0625 C-14.285 68.0625 -14.945 68.0625 -15.625 68.0625 C-15.625 68.7225 -15.625 69.3825 -15.625 70.0625 C-16.285 70.0625 -16.945 70.0625 -17.625 70.0625 C-17.625 70.7225 -17.625 71.3825 -17.625 72.0625 C-20.65456259 72.34592211 -22.21543227 72.31908114 -24.82963562 70.68136597 C-28.58661931 67.08020833 -31.07472433 64.39239105 -31.61254883 59.09033203 C-31.64472985 57.25057884 -31.63248088 55.40965539 -31.58203125 53.5703125 C-31.58257004 52.58433075 -31.58310883 51.598349 -31.58366394 50.58248901 C-31.57599712 48.50649361 -31.54882661 46.430488 -31.50317383 44.35498047 C-31.43780862 41.20238474 -31.44154428 38.05548371 -31.45507812 34.90234375 C-31.43900148 32.87496329 -31.41894892 30.84760966 -31.39453125 28.8203125 C-31.39524124 27.89082794 -31.39595123 26.96134338 -31.39668274 26.00369263 C-31.19850523 19.03755502 -29.14802177 14.03813596 -25.625 8.0625 C-24.965 8.0625 -24.305 8.0625 -23.625 8.0625 C-23.625 7.4025 -23.625 6.7425 -23.625 6.0625 C-19.33184323 3.77210619 -15.49282099 1.77835603 -10.625 1.0625 C-7.31505287 -0.59247356 -3.63377 -0.03834335 0 0 Z " fill="#931ACB" transform="translate(101.625,106.9375)"/>
<path d="M0 0 C1.08174162 3.36541838 0.92538169 4.29847322 0 8 C-2.97 8 -5.94 8 -9 8 C-9.66 9.65 -10.32 11.3 -11 13 C-5.06 13 0.88 13 7 13 C10.03173368 19.65297112 13.04443976 26.31283855 16 33 C19.14823068 29.31899182 20.82051175 25.16217266 22.6875 20.75 C23.00783203 20.00492188 23.32816406 19.25984375 23.65820312 18.4921875 C24.44359663 16.66351009 25.22245338 14.83202764 26 13 C28.97 13 31.94 13 35 13 C35 16.71951763 33.70138497 19.47362335 32.26171875 22.828125 C31.98028519 23.49535583 31.69885162 24.16258667 31.40888977 24.85003662 C30.50675747 26.98551361 29.59723088 29.11775058 28.6875 31.25 C28.08610225 32.67036712 27.48518543 34.09093796 26.88476562 35.51171875 C24.27421781 41.68206365 21.64105142 47.84265637 19 54 C18.34 54 17.68 54 17 54 C16.79375 54.598125 16.5875 55.19625 16.375 55.8125 C14.3647694 59.01059414 12.5607273 59.76993057 9 61 C4.18169403 61.06680494 0.23347469 60.32745328 -4 58 C-3.40072174 54.64404172 -2.15377564 52.62198774 0 50 C2.01822917 50.32552083 4.03645833 50.65104167 6.0546875 50.9765625 C7.01761719 50.98816406 7.01761719 50.98816406 8 51 C8.66 50.34 9.32 49.68 10 49 C9.77902285 42.98557833 6.83347946 37.54072081 4.4375 32.125 C3.80038086 30.66320312 3.80038086 30.66320312 3.15039062 29.171875 C2.10627345 26.77861766 1.05394635 24.38894505 0 22 C-3.3 21.67 -6.6 21.34 -10 21 C-10 29.58 -10 38.16 -10 47 C-12.97 47 -15.94 47 -19 47 C-19 38.42 -19 29.84 -19 21 C-20.98 21 -22.96 21 -25 21 C-25 18.36 -25 15.72 -25 13 C-23.35 13 -21.7 13 -20 13 C-19.814375 11.3603125 -19.814375 11.3603125 -19.625 9.6875 C-19 6 -19 6 -17 3 C-16.34 3 -15.68 3 -15 3 C-15 2.34 -15 1.68 -15 1 C-9.675665 -1.32086397 -5.56157448 -0.91457003 0 0 Z " fill="#08B3D3" transform="translate(298,134)"/>
<path d="M0 0 C0 17.82 0 35.64 0 54 C1.32 54.66 2.64 55.32 4 56 C4 59.54404336 3.39010515 60.10267905 1.125 62.6875 C0.59132813 63.31011719 0.05765625 63.93273437 -0.4921875 64.57421875 C-2 66 -2 66 -4 66 C-4 66.66 -4 67.32 -4 68 C-4.66 68 -5.32 68 -6 68 C-6 68.66 -6 69.32 -6 70 C-9.02956259 70.28342211 -10.59043227 70.25658114 -13.20463562 68.61886597 C-16.96161931 65.01770833 -19.44972433 62.32989105 -19.98754883 57.02783203 C-20.01972985 55.18807884 -20.00748088 53.34715539 -19.95703125 51.5078125 C-19.95757004 50.52183075 -19.95810883 49.535849 -19.95866394 48.51998901 C-19.95099712 46.44399361 -19.92382661 44.367988 -19.87817383 42.29248047 C-19.81280862 39.13988474 -19.81654428 35.99298371 -19.83007812 32.83984375 C-19.81400148 30.81246329 -19.79394892 28.78510966 -19.76953125 26.7578125 C-19.77024124 25.82832794 -19.77095123 24.89884338 -19.77168274 23.94119263 C-19.57350523 16.97505502 -17.52302177 11.97563596 -14 6 C-13.34 6 -12.68 6 -12 6 C-12 5.34 -12 4.68 -12 4 C-10.75539217 3.32332002 -9.50403104 2.65905281 -8.25 2 C-7.55390625 1.62875 -6.8578125 1.2575 -6.140625 0.875 C-4 0 -4 0 0 0 Z " fill="#6282F6" transform="translate(90,109)"/>
<path d="M0 0 C0.72160812 0.00470306 1.44321625 0.00940613 2.18669128 0.01425171 C4.4731194 0.03546866 6.75716751 0.09204557 9.04296875 0.1484375 C10.59698341 0.16495751 12.1510228 0.17930225 13.70507812 0.19140625 C25.03425815 0.3272269 25.03425815 0.3272269 26.23046875 1.5234375 C26.32907006 2.92692485 26.36125812 4.33524227 26.36328125 5.7421875 C26.36521484 7.01642578 26.36521484 7.01642578 26.3671875 8.31640625 C26.36332031 9.20972656 26.35945313 10.10304687 26.35546875 11.0234375 C26.36126953 12.36341797 26.36126953 12.36341797 26.3671875 13.73046875 C26.36589844 14.57996094 26.36460937 15.42945313 26.36328125 16.3046875 C26.36215332 17.08908203 26.36102539 17.87347656 26.35986328 18.68164062 C26.23046875 20.5234375 26.23046875 20.5234375 25.23046875 21.5234375 C22.18643665 21.66195892 19.16678164 21.73666085 16.12109375 21.76171875 C15.20213318 21.7697905 14.28317261 21.77786224 13.33636475 21.78617859 C11.38604632 21.80003856 9.43570344 21.81075212 7.48535156 21.81860352 C4.5066902 21.83578624 1.52914715 21.87965117 -1.44921875 21.92382812 C-3.34243974 21.93395728 -5.23567018 21.94247269 -7.12890625 21.94921875 C-8.0186615 21.96672684 -8.90841675 21.98423492 -9.82513428 22.00227356 C-14.10989362 21.98730179 -16.19571365 21.89826123 -19.87207031 19.49682617 C-20.49823242 18.84560791 -21.12439453 18.19438965 -21.76953125 17.5234375 C-21.26212663 13.12593078 -18.68659811 10.65394828 -15.76953125 7.5234375 C-15.10953125 7.5234375 -14.44953125 7.5234375 -13.76953125 7.5234375 C-13.76953125 6.8634375 -13.76953125 6.2034375 -13.76953125 5.5234375 C-9.40111604 1.01971552 -6.31859661 -0.20827742 0 0 Z " fill="#1593C9" transform="translate(106.76953125,167.4765625)"/>
<path d="M0 0 C4.35323024 2.26849552 6.91105258 5.27583326 9.5 9.375 C10.22572976 13.18508124 10 17.12141743 10 21 C-2.375 21.495 -2.375 21.495 -15 22 C-10.96275966 26.03724034 -7.61215285 25.94442228 -2.0625 26.0625 C-1.0415625 26.0315625 -1.0415625 26.0315625 0 26 C0 25.34 0 24.68 0 24 C3.68754757 24.49831724 5.60490662 25.10067643 8 28 C6.98693104 30.93789998 6.06832637 31.95500458 3.4375 33.6875 C-3.83064223 36.46260885 -9.63308482 36.27704651 -17 34 C-17 33.34 -17 32.68 -17 32 C-17.7425 31.835 -18.485 31.67 -19.25 31.5 C-23.3320934 29.2734036 -24.63342803 26.36139989 -26 22 C-27.07969182 15.68180341 -26.16135129 11.13671603 -22.6796875 5.7890625 C-16.19840925 -1.11425247 -8.97648239 -1.44007739 0 0 Z M-14 9.375 C-15.17469914 10.96587907 -15.17469914 10.96587907 -15 13 C-13.25093341 13.19601608 -11.50068154 13.38147403 -9.75 13.5625 C-8.28820312 13.71912109 -8.28820312 13.71912109 -6.796875 13.87890625 C-4.2368648 13.98974468 -2.41851841 13.77738092 0 13 C-1.3089572 9.87802522 -1.3089572 9.87802522 -4 8 C-9.31816365 7.44906884 -9.31816365 7.44906884 -14 9.375 Z " fill="#09B4D0" transform="translate(201,147)"/>
<path d="M0 0 C4.33333333 0 8.66666667 0 13 0 C14.12148437 -0.05800781 15.24296875 -0.11601562 16.3984375 -0.17578125 C17.71070313 -0.22089844 19.02296875 -0.26601562 20.375 -0.3125 C21.68210938 -0.37050781 22.98921875 -0.42851562 24.3359375 -0.48828125 C28 0 28 0 30.7890625 2.08203125 C36.04938783 9.02454542 36.41363833 14.45441359 36.1875 22.9375 C36.16719727 24.3925293 36.16719727 24.3925293 36.14648438 25.87695312 C36.11138677 28.25189129 36.06222275 30.62564378 36 33 C32.38026598 34.31626692 29.90432869 35 26 35 C25.9906543 34.35450195 25.98130859 33.70900391 25.97167969 33.04394531 C25.91790899 30.11186056 25.8342766 27.18135992 25.75 24.25 C25.73582031 23.23421875 25.72164062 22.2184375 25.70703125 21.171875 C25.5942135 15.39350328 25.5942135 15.39350328 23.1796875 10.29296875 C20.90262431 8.68443741 20.90262431 8.68443741 17.375 9.0625 C13.74483076 9.6750845 13.74483076 9.6750845 12 13 C11.01036363 19.23470916 10.93513013 25.28894138 11.0625 31.59375 C11 34 11 34 10 35 C8.50261876 35.0979057 7.00057108 35.12974864 5.5 35.125 C4.6853125 35.12757813 3.870625 35.13015625 3.03125 35.1328125 C1 35 1 35 0 34 C-0.08847743 31.47905924 -0.11527301 28.98569107 -0.09765625 26.46484375 C-0.0962413 25.71159317 -0.09482635 24.95834259 -0.09336853 24.18226624 C-0.08775376 21.7673044 -0.07519883 19.35243399 -0.0625 16.9375 C-0.0574869 15.30403779 -0.05292366 13.67057414 -0.04882812 12.03710938 C-0.03777954 8.02470415 -0.02050506 4.01236759 0 0 Z " fill="#138FAB" transform="translate(216,147)"/>
<path d="M0 0 C5.61 0 11.22 0 17 0 C17.04600738 4.60840616 17.08580328 9.21600975 17.10986328 13.82446289 C17.11989726 15.39089667 17.13352754 16.95731183 17.15087891 18.52368164 C17.17524225 20.78015753 17.18650916 23.03638494 17.1953125 25.29296875 C17.20563507 25.98899704 17.21595764 26.68502533 17.22659302 27.40214539 C17.22749984 31.36597078 16.92505785 34.49927059 15 38 C12.1875 39.5625 12.1875 39.5625 9 40 C6.125 38.25 6.125 38.25 4 36 C4 35.34 4 34.68 4 34 C3.01 33.67 2.02 33.34 1 33 C0.19604975 28.77717482 -0.11811363 24.80386236 -0.09765625 20.5078125 C-0.09443359 19.30898437 -0.09121094 18.11015625 -0.08789062 16.875 C-0.07951172 15.6375 -0.07113281 14.4 -0.0625 13.125 C-0.05798828 11.86429688 -0.05347656 10.60359375 -0.04882812 9.3046875 C-0.0370797 6.20310455 -0.01914535 3.10154612 0 0 Z " fill="#D41ADD" transform="translate(92,109)"/>
<path d="M0 0 C1.08174162 3.36541838 0.92538169 4.29847322 0 8 C-2.97 8 -5.94 8 -9 8 C-9.33 9.65 -9.66 11.3 -10 13 C-7.03 13.33 -4.06 13.66 -1 14 C-1 16.31 -1 18.62 -1 21 C-3.97 21 -6.94 21 -10 21 C-10 29.58 -10 38.16 -10 47 C-12.97 47 -15.94 47 -19 47 C-19 38.42 -19 29.84 -19 21 C-20.98 21 -22.96 21 -25 21 C-25 18.36 -25 15.72 -25 13 C-23.35 13 -21.7 13 -20 13 C-19.814375 11.3603125 -19.814375 11.3603125 -19.625 9.6875 C-19 6 -19 6 -17 3 C-16.34 3 -15.68 3 -15 3 C-15 2.34 -15 1.68 -15 1 C-9.675665 -1.32086397 -5.56157448 -0.91457003 0 0 Z " fill="#E54DED" transform="translate(298,134)"/>
<path d="M0 0 C1.43655854 -0.08131463 2.8744483 -0.13933559 4.3125 -0.1875 C5.51326172 -0.23970703 5.51326172 -0.23970703 6.73828125 -0.29296875 C9 0 9 0 10.76171875 1.21875 C13.22764884 4.76595543 12.64767845 8.88996574 12 13 C10.78771028 16.10805142 9.38105686 18.6446843 7 21 C4.1875 21.5 4.1875 21.5 2 21 C1.76410156 21.57492188 1.52820313 22.14984375 1.28515625 22.7421875 C-1.60837178 27.82565012 -7.13595094 31.81114945 -12.484375 34.03125 C-16.86928314 35.14954872 -19.93847467 35.35830503 -24 33 C-24.66597935 29.97342058 -25.09407416 27.10444734 -25 24 C-21.89016309 19.17439101 -17.48330944 17.86428055 -12.30859375 15.98046875 C-9.56498968 14.81524942 -7.927385 13.24861583 -6 11 C-5.34 11 -4.68 11 -4 11 C-3.855625 10.071875 -3.71125 9.14375 -3.5625 8.1875 C-3 5 -3 5 -2 2 C-1.34 2 -0.68 2 0 2 C0 1.34 0 0.68 0 0 Z M4 4 C2.3553326 6.46326712 2.3553326 6.46326712 1 9 C3.475 10.98 3.475 10.98 6 13 C6 10.03 6 7.06 6 4 C5.34 4 4.68 4 4 4 Z M-5 17 C-4.67 18.32 -4.34 19.64 -4 21 C-4 19.68 -4 18.36 -4 17 C-4.33 17 -4.66 17 -5 17 Z M-20 26 C-20 26.99 -20 27.98 -20 29 C-16.37673261 30.2077558 -15.35853631 29.54311128 -12 28 C-12.33 26.35 -12.66 24.7 -13 23 C-16.52809907 23 -17.46815512 23.64276511 -20 26 Z " fill="#E6199D" transform="translate(182,104)"/>
<path d="M0 0 C1.80597656 0.00676758 1.80597656 0.00676758 3.6484375 0.01367188 C6.59901073 0.0253805 9.54947859 0.04178005 12.5 0.0625 C12.52900455 3.6666498 12.54680018 7.27076962 12.5625 10.875 C12.57087891 11.89916016 12.57925781 12.92332031 12.58789062 13.97851562 C12.59111328 14.96142578 12.59433594 15.94433594 12.59765625 16.95703125 C12.60289307 17.86300049 12.60812988 18.76896973 12.61352539 19.70239258 C12.5 22.0625 12.5 22.0625 11.5 25.0625 C10.84 25.0625 10.18 25.0625 9.5 25.0625 C9.17 23.7425 8.84 22.4225 8.5 21.0625 C7.84 21.0625 7.18 21.0625 6.5 21.0625 C6.5 21.7225 6.5 22.3825 6.5 23.0625 C5.18 22.4025 3.86 21.7425 2.5 21.0625 C2.5 20.0725 2.5 19.0825 2.5 18.0625 C1.64535156 17.86914062 0.79070312 17.67578125 -0.08984375 17.4765625 C-1.19457031 17.21617187 -2.29929688 16.95578125 -3.4375 16.6875 C-4.53964844 16.43226563 -5.64179688 16.17703125 -6.77734375 15.9140625 C-7.67582031 15.63304687 -8.57429687 15.35203125 -9.5 15.0625 C-9.83 14.4025 -10.16 13.7425 -10.5 13.0625 C-13.14 13.0625 -15.78 13.0625 -18.5 13.0625 C-18.6953125 11.01171875 -18.890625 8.9609375 -19.0859375 6.91015625 C-19.22257812 6.30042969 -19.35921875 5.69070312 -19.5 5.0625 C-20.16 4.7325 -20.82 4.4025 -21.5 4.0625 C-21.5 3.0725 -21.5 2.0825 -21.5 1.0625 C-14.31917746 -0.06616889 -7.25794868 -0.05184249 0 0 Z " fill="#CF17F4" transform="translate(137.5,148.9375)"/>
<path d="M0 0 C11.22 0 22.44 0 34 0 C34 6.27 34 12.54 34 19 C24.76 19 15.52 19 6 19 C6 18.67 6 18.34 6 18 C10.62 18 15.24 18 20 18 C15.43328912 15.81430466 15.43328912 15.81430466 12 16 C12.165 15.13375 12.33 14.2675 12.5 13.375 C12.97218548 10.18774801 13.07655118 7.21514973 13 4 C12.34 4 11.68 4 11 4 C10.67 3.34 10.34 2.68 10 2 C5.45194365 1.82164485 2.1205746 2.00214565 -2 4 C-1.34 2.68 -0.68 1.36 0 0 Z " fill="#48A2F6" transform="translate(97,169)"/>
<path d="M0 0 C13.03051355 -1.06890931 13.03051355 -1.06890931 17.7421875 1.48828125 C20.34100253 3.78723301 22.44255335 5.88510669 24 9 C24 12.63 24 16.26 24 20 C15.42 20 6.84 20 -2 20 C-1.67 22.97 -1.34 25.94 -1 29 C-4 29 -4 29 -6.125 27.1875 C-9.67382281 23.04720672 -9.08470549 19.167035 -9 14 C-6.35261084 12.5393715 -5.10551666 12 -2 12 C-2 12.99 -2 13.98 -2 15 C3.94 14.67 9.88 14.34 16 14 C15.67 11.69 15.34 9.38 15 7 C10.05 7 5.1 7 0 7 C-0.33 7.66 -0.66 8.32 -1 9 C-2.0625 7.125 -2.0625 7.125 -3 5 C-2.67 4.34 -2.34 3.68 -2 3 C-1.34 3 -0.68 3 0 3 C0 2.01 0 1.02 0 0 Z " fill="#06B6D5" transform="translate(186,147)"/>
<path d="M0 0 C0.80179688 0.00451172 1.60359375 0.00902344 2.4296875 0.01367188 C4.41149006 0.02546832 6.39325433 0.04340395 8.375 0.0625 C9.24112792 11.41496238 9.49358127 22.67869816 9.375 34.0625 C7.375 32.0625 7.375 32.0625 7.14794922 29.08154297 C7.15842285 27.83518066 7.16889648 26.58881836 7.1796875 25.3046875 C7.1825174 24.64163605 7.18534729 23.97858459 7.18826294 23.29544067 C7.19946565 21.17594417 7.22456949 19.05686896 7.25 16.9375 C7.26002972 15.50130818 7.26915559 14.06510975 7.27734375 12.62890625 C7.29770461 9.10647762 7.3368506 5.58496083 7.375 2.0625 C1.765 2.0625 -3.845 2.0625 -9.625 2.0625 C-9.5562297 8.27424426 -9.46831496 14.48530849 -9.36254883 20.6965332 C-9.32926872 22.81006336 -9.30124647 24.92368306 -9.27856445 27.03735352 C-9.24507528 30.07346806 -9.19276236 33.10875975 -9.13671875 36.14453125 C-9.12713387 37.5649749 -9.12713387 37.5649749 -9.11735535 39.01411438 C-9.09756119 39.89480087 -9.07776703 40.77548737 -9.05737305 41.68286133 C-9.04071846 42.84535149 -9.04071846 42.84535149 -9.02372742 44.03132629 C-8.51863561 46.60433523 -7.694339 47.48929999 -5.625 49.0625 C-2.59565509 49.72022428 -2.59565509 49.72022428 0.375 50.0625 C1.035 50.3925 1.695 50.7225 2.375 51.0625 C2.375 51.7225 2.375 52.3825 2.375 53.0625 C3.695 53.0625 5.015 53.0625 6.375 53.0625 C6.375 53.7225 6.375 54.3825 6.375 55.0625 C7.035 55.0625 7.695 55.0625 8.375 55.0625 C8.375 56.0525 8.375 57.0425 8.375 58.0625 C16.625 58.3925 24.875 58.7225 33.375 59.0625 C33.87 65.4975 33.87 65.4975 34.375 72.0625 C38.005 72.3925 41.635 72.7225 45.375 73.0625 C42.79715154 75.71002004 40.45851902 78.00682065 37.375 80.0625 C35.725 80.0625 34.075 80.0625 32.375 80.0625 C32.375 73.4625 32.375 66.8625 32.375 60.0625 C29.94382813 60.07410156 27.51265625 60.08570313 25.0078125 60.09765625 C22.65804169 60.10545082 20.30827232 60.11152531 17.95849609 60.11743164 C16.32307289 60.12246621 14.6876542 60.12929427 13.05224609 60.13793945 C10.70409025 60.15004335 8.35599381 60.155737 6.0078125 60.16015625 C4.90773361 60.16789818 4.90773361 60.16789818 3.78543091 60.17579651 C-1.39725659 60.17637171 -1.39725659 60.17637171 -3.625 59.0625 C-3.625 58.4025 -3.625 57.7425 -3.625 57.0625 C-4.285 57.0625 -4.945 57.0625 -5.625 57.0625 C-5.625 56.4025 -5.625 55.7425 -5.625 55.0625 C-6.285 55.0625 -6.945 55.0625 -7.625 55.0625 C-8.285 54.0725 -8.945 53.0825 -9.625 52.0625 C-10.285 53.3825 -10.945 54.7025 -11.625 56.0625 C-11.295 37.9125 -10.965 19.7625 -10.625 1.0625 C-7.31505287 -0.59247356 -3.63377 -0.03834335 0 0 Z " fill="#5A1565" transform="translate(101.625,106.9375)"/>
<path d="M0 0 C1.32 0 2.64 0 4 0 C4 1.32 4 2.64 4 4 C6.70590396 4.95367452 6.70590396 4.95367452 10 5 C12.3586498 3.57631048 14.00702837 1.94551992 16 0 C18 2 18 2 18.1953125 3.9453125 C18.13020833 5.96354167 18.06510417 7.98177083 18 10 C19.32 10.66 20.64 11.32 22 12 C22 15.54404336 21.39010515 16.10267905 19.125 18.6875 C18.59132813 19.31011719 18.05765625 19.93273437 17.5078125 20.57421875 C16 22 16 22 14 22 C14 22.66 14 23.32 14 24 C13.34 24 12.68 24 12 24 C12 24.66 12 25.32 12 26 C9.35018622 26.56208171 7.55233587 26.26019128 5.109375 25.109375 C2.55206301 23.21737995 1.41733792 21.89072876 0 19 C-0.88583751 12.71530425 -0.39707362 6.30905856 0 0 Z " fill="#16B4E4" transform="translate(72,153)"/>
<path d="M0 0 C3.3 0 6.6 0 10 0 C11.19583104 3.58749311 11.01782444 6.292557 10.87890625 10.07421875 C10.85529526 10.7580513 10.83168427 11.44188385 10.80735779 12.1464386 C10.7308855 14.32701226 10.64679119 16.50721595 10.5625 18.6875 C10.50926281 20.1672997 10.45652252 21.64711738 10.40429688 23.12695312 C10.27529303 26.75152817 10.13945273 30.37581023 10 34 C6.7 34 3.4 34 0 34 C0 22.78 0 11.56 0 0 Z " fill="#E64CED" transform="translate(259,147)"/>
<path d="M0 0 C3.3 0 6.6 0 10 0 C10 11.22 10 22.44 10 34 C6.7 34 3.4 34 0 34 C0 22.78 0 11.56 0 0 Z " fill="#E14FEB" transform="translate(160,147)"/>
<path d="M0 0 C1.08174162 3.36541838 0.92538169 4.29847322 0 8 C-2.97 8 -5.94 8 -9 8 C-9.33 9.65 -9.66 11.3 -10 13 C-7.03 13.33 -4.06 13.66 -1 14 C-1 16.31 -1 18.62 -1 21 C-3.97 21 -6.94 21 -10 21 C-10 29.58 -10 38.16 -10 47 C-12.97 47 -15.94 47 -19 47 C-19 38.42 -19 29.84 -19 21 C-20.98 21 -22.96 21 -25 21 C-25 18.36 -25 15.72 -25 13 C-23.35 13 -21.7 13 -20 13 C-19.814375 11.3603125 -19.814375 11.3603125 -19.625 9.6875 C-19 6 -19 6 -17 3 C-16.34 3 -15.68 3 -15 3 C-15 2.34 -15 1.68 -15 1 C-9.675665 -1.32086397 -5.56157448 -0.91457003 0 0 Z M-15 4 C-15 4.66 -15 5.32 -15 6 C-15.66 6 -16.32 6 -17 6 C-17.33 9.3 -17.66 12.6 -18 16 C-19.65 16 -21.3 16 -23 16 C-23 16.99 -23 17.98 -23 19 C-21.35 19 -19.7 19 -18 19 C-18 27.91 -18 36.82 -18 46 C-15.69 46 -13.38 46 -11 46 C-10.67 37.09 -10.34 28.18 -10 19 C-7.69 19 -5.38 19 -3 19 C-3 18.01 -3 17.02 -3 16 C-5.64 16.33 -8.28 16.66 -11 17 C-11 16.01 -11 15.02 -11 14 C-12.32 14 -13.64 14 -15 14 C-14.34 13.67 -13.68 13.34 -13 13 C-13 11.02 -13 9.04 -13 7 C-12.01 7 -11.02 7 -10 7 C-9.34 6.01 -8.68 5.02 -8 4 C-7.34 4.33 -6.68 4.66 -6 5 C-6 4.01 -6 3.02 -6 2 C-10.7897321 1.76571687 -10.7897321 1.76571687 -15 4 Z " fill="#DE50E5" transform="translate(298,134)"/>
<path d="M0 0 C5.61 0 11.22 0 17 0 C17 6.27 17 12.54 17 19 C15.68 18.34 14.36 17.68 13 17 C11.68 17 10.36 17 9 17 C6.375 16.6875 6.375 16.6875 4 16 C3.34 15.01 2.68 14.02 2 13 C1.67 17.62 1.34 22.24 1 27 C0.67 27 0.34 27 0 27 C0 18.09 0 9.18 0 0 Z " fill="#F2189E" transform="translate(92,109)"/>
<path d="M0 0 C0 9.9 0 19.8 0 30 C-0.33 30 -0.66 30 -1 30 C-1.495 25.05 -1.495 25.05 -2 20 C-3.093125 19.896875 -4.18625 19.79375 -5.3125 19.6875 C-9.20790466 18.96123811 -9.43979225 18.56020775 -12 16 C-14.65466049 16.23043864 -14.65466049 16.23043864 -17 17 C-17.33 18.65 -17.66 20.3 -18 22 C-18.33 22 -18.66 22 -19 22 C-18.70887831 15.58076669 -17.54784971 11.37899794 -14 6 C-13.34 6 -12.68 6 -12 6 C-12 5.34 -12 4.68 -12 4 C-10.75539217 3.32332002 -9.50403104 2.65905281 -8.25 2 C-7.55390625 1.62875 -6.8578125 1.2575 -6.140625 0.875 C-4 0 -4 0 0 0 Z " fill="#6028B2" transform="translate(90,109)"/>
<path d="M0 0 C1.79133978 -0.05391993 3.58313899 -0.09275571 5.375 -0.125 C6.37273437 -0.14820313 7.37046875 -0.17140625 8.3984375 -0.1953125 C11 0 11 0 13 2 C13.33 2 13.66 2 14 2 C14 4.31 14 6.62 14 9 C14.99 9 15.98 9 17 9 C18.2263757 11.45275141 18.11415314 13.0505781 18.09765625 15.7890625 C18.09443359 16.73007813 18.09121094 17.67109375 18.08789062 18.640625 C18.07951172 19.62546875 18.07113281 20.6103125 18.0625 21.625 C18.05798828 22.61757812 18.05347656 23.61015625 18.04882812 24.6328125 C18.03702145 27.0886016 18.020554 29.54427104 18 32 C15.69 32 13.38 32 11 32 C11 23.75 11 15.5 11 7 C3.04849721 4.89153477 3.04849721 4.89153477 -1 5 C-0.67 3.35 -0.34 1.7 0 0 Z " fill="#05B4D4" transform="translate(232,148)"/>
<path d="M0 0 C0.33 0 0.66 0 1 0 C1 1.65 1 3.3 1 5 C14.2 5 27.4 5 41 5 C41.0825 9.145625 41.165 13.29125 41.25 17.5625 C41.28641602 18.85615479 41.32283203 20.14980957 41.36035156 21.48266602 C41.42523846 28.22619363 41.07670469 32.53496871 37 38 C35.18674449 37.88648483 33.37436643 37.75887039 31.5625 37.625 C30.55316406 37.55539063 29.54382813 37.48578125 28.50390625 37.4140625 C27.26447266 37.20910156 27.26447266 37.20910156 26 37 C24.67770811 34.35541621 24.90322806 32.32238699 24.9375 29.375 C24.94652344 28.37210938 24.95554688 27.36921875 24.96484375 26.3359375 C24.97644531 25.56507813 24.98804688 24.79421875 25 24 C27.42578125 24.375 27.42578125 24.375 30 25 C31.1875 27 31.1875 27 32 29 C32.66 29.33 33.32 29.66 34 30 C34 29.34 34 28.68 34 28 C34.66 28 35.32 28 36 28 C36.495 29.98 36.495 29.98 37 32 C37.66 32 38.32 32 39 32 C39.33 23.75 39.66 15.5 40 7 C26.8 7 13.6 7 0 7 C0 4.69 0 2.38 0 0 Z " fill="#831D9B" transform="translate(110,142)"/>
<path d="M0 0 C6 2 6 2 8 4 C8.66 4 9.32 4 10 4 C10 5.65 10 7.3 10 9 C9.01 9.495 9.01 9.495 8 10 C7.67 17.59 7.34 25.18 7 33 C4.69 33 2.38 33 0 33 C0 22.11 0 11.22 0 0 Z " fill="#06B4D4" transform="translate(218,148)"/>
<path d="M0 0 C1.43655854 -0.08131463 2.8744483 -0.13933559 4.3125 -0.1875 C5.51326172 -0.23970703 5.51326172 -0.23970703 6.73828125 -0.29296875 C9 0 9 0 10.76171875 1.21875 C13.22764884 4.76595543 12.64767845 8.88996574 12 13 C10.78771028 16.10805142 9.38105686 18.6446843 7 21 C4.1875 21.5 4.1875 21.5 2 21 C1.34 22.32 0.68 23.64 0 25 C-0.33 24.01 -0.66 23.02 -1 22 C-2.65 22.33 -4.3 22.66 -6 23 C-6 21.35 -6 19.7 -6 18 C-5.34 18.66 -4.68 19.32 -4 20 C-4.33 18.68 -4.66 17.36 -5 16 C-3.0625 16.375 -3.0625 16.375 -1 17 C-0.67 17.66 -0.34 18.32 0 19 C2.02463255 19.65213292 2.02463255 19.65213292 4 20 C3.51515724 15.35413108 3.51515724 15.35413108 2 11 C-0.97 11.66 -3.94 12.32 -7 13 C-6.67 12.34 -6.34 11.68 -6 11 C-5.34 11 -4.68 11 -4 11 C-3.855625 10.071875 -3.71125 9.14375 -3.5625 8.1875 C-3 5 -3 5 -2 2 C-1.34 2 -0.68 2 0 2 C0 1.34 0 0.68 0 0 Z M4 4 C2.3553326 6.46326712 2.3553326 6.46326712 1 9 C3.475 10.98 3.475 10.98 6 13 C6 10.03 6 7.06 6 4 C5.34 4 4.68 4 4 4 Z " fill="#BD1C88" transform="translate(182,104)"/>
<path d="M0 0 C0.33 0 0.66 0 1 0 C1 2.97 1 5.94 1 9 C-11.375 9.495 -11.375 9.495 -24 10 C-19.96275966 14.03724034 -16.61215285 13.94442228 -11.0625 14.0625 C-10.381875 14.041875 -9.70125 14.02125 -9 14 C-9 13.34 -9 12.68 -9 12 C-5.31245243 12.49831724 -3.39509338 13.10067643 -1 16 C-1.625 17.9375 -1.625 17.9375 -3 20 C-7.60329571 21.10922788 -12.16749433 21.12179997 -16.875 21.0625 C-17.90753906 21.05573242 -17.90753906 21.05573242 -18.9609375 21.04882812 C-20.64066335 21.03716336 -22.32034375 21.01923271 -24 21 C-25.79275866 17.88089144 -26.34290718 15.32317572 -26.625 11.75 C-26.69976562 10.85796875 -26.77453125 9.9659375 -26.8515625 9.046875 C-26.90054688 8.37140625 -26.94953125 7.6959375 -27 7 C-17.93664124 6.89765341 -9.01824887 6.93003827 0 8 C0 5.36 0 2.72 0 0 Z " fill="#05B5D7" transform="translate(210,159)"/>
<path d="M0 0 C2.52259061 1.97420135 2.9929808 2.96745642 3.6875 6.1875 C3.790625 7.115625 3.89375 8.04375 4 9 C4.99 9.33 5.98 9.66 7 10 C7 10.99 7 11.98 7 13 C7.66 13 8.32 13 9 13 C9.35469662 16.07403734 9.51632735 18.93891643 9 22 C5.46113813 25.29757584 3.86024422 26 -1 26 C-1 26.66 -1 27.32 -1 28 C1.97 28.33 4.94 28.66 8 29 C8 28.34 8 27.68 8 27 C8.99 27 9.98 27 11 27 C11 26.01 11 25.02 11 24 C11.66 24 12.32 24 13 24 C13 23.01 13 22.02 13 21 C13.66 21 14.32 21 15 21 C15 19.68 15 18.36 15 17 C15.66 17 16.32 17 17 17 C17 15.35 17 13.7 17 12 C17.99 11.67 18.98 11.34 20 11 C18.45730076 15.72065967 16.92205381 20.41664092 15 25 C14.34 25 13.68 25 13 25 C12.690625 25.8971875 12.690625 25.8971875 12.375 26.8125 C10.3647694 30.01059414 8.5607273 30.76993057 5 32 C0.18169403 32.06680494 -3.76652531 31.32745328 -8 29 C-7.40072174 25.64404172 -6.15377564 23.62198774 -4 21 C-1.98177083 21.32552083 0.03645833 21.65104167 2.0546875 21.9765625 C3.01761719 21.98816406 3.01761719 21.98816406 4 22 C4.66 21.34 5.32 20.68 6 20 C5.64823776 15.52302601 4.23802391 11.8332394 2.4375 7.75 C0 2.19830028 0 2.19830028 0 0 Z " fill="#1393B0" transform="translate(302,163)"/>
<path d="M0 0 C5.61 0 11.22 0 17 0 C22.04615385 10.09230769 22.04615385 10.09230769 21.8125 14.6875 C21.544375 15.450625 21.27625 16.21375 21 17 C21.66 17 22.32 17 23 17 C23 17.66 23 18.32 23 19 C22.01 19 21.02 19 20 19 C19.67 18.01 19.34 17.02 19 16 C18.34 16 17.68 16 17 16 C16.67 16.99 16.34 17.98 16 19 C11.01564637 13.15627506 8.53087676 8.81872072 9 1 C6.03 1 3.06 1 0 1 C0 0.67 0 0.34 0 0 Z " fill="#06B3D4" transform="translate(288,147)"/>
<path d="M0 0 C0.33 0.66 0.66 1.32 1 2 C2.65 1.67 4.3 1.34 6 1 C6.66 2.32 7.32 3.64 8 5 C9.7015625 4.9690625 9.7015625 4.9690625 11.4375 4.9375 C15 5 15 5 16 6 C17.5643416 14.51697096 17.09625623 23.37971997 17 32 C16.67 32 16.34 32 16 32 C15.81824219 30.94941406 15.63648437 29.89882812 15.44921875 28.81640625 C13.53907188 17.6869695 13.53907188 17.6869695 10 7 C9.01 6.67 8.02 6.34 7 6 C6.34 6.66 5.68 7.32 5 8 C4.67 7.34 4.34 6.68 4 6 C3.01 5.67 2.02 5.34 1 5 C1.020625 6.134375 1.04125 7.26875 1.0625 8.4375 C1 12 1 12 0 13 C-0.15996166 15.59153107 -0.25938697 18.1595202 -0.31640625 20.75390625 C-0.33718735 21.52935287 -0.35796844 22.3047995 -0.37937927 23.10374451 C-0.44495802 25.58990308 -0.50379799 28.07617045 -0.5625 30.5625 C-0.60567733 32.24415204 -0.64929136 33.92579294 -0.69335938 35.60742188 C-0.80064779 39.73816871 -0.90189132 43.86902536 -1 48 C-1.33 48 -1.66 48 -2 48 C-2.04969113 42.44988284 -2.08585685 36.89989718 -2.10986328 31.34960938 C-2.11987847 29.46416974 -2.13349452 27.57874547 -2.15087891 25.69335938 C-2.17532532 22.97261751 -2.18652816 20.25208223 -2.1953125 17.53125 C-2.20563507 16.69758911 -2.21595764 15.86392822 -2.22659302 15.00500488 C-2.22759968 9.67237609 -1.48724147 5.12557962 0 0 Z " fill="#6766D7" transform="translate(73,123)"/>
<path d="M0 0 C3.3 0 6.6 0 10 0 C10 11.22 10 22.44 10 34 C6.7 34 3.4 34 0 34 C0 22.78 0 11.56 0 0 Z M2 2 C2 12.23 2 22.46 2 33 C3.98 33 5.96 33 8 33 C8.02465622 28.74585377 8.04283899 24.49174502 8.05493164 20.23754883 C8.05997101 18.78929927 8.06680253 17.34105483 8.07543945 15.89282227 C8.08752247 13.81525412 8.09323211 11.73775303 8.09765625 9.66015625 C8.10289307 8.40855713 8.10812988 7.15695801 8.11352539 5.86743164 C8.32887035 3.10267706 8.32887035 3.10267706 7 2 C5.35 2 3.7 2 2 2 Z " fill="#8D3EA0" transform="translate(160,147)"/>
<path d="M0 0 C0.78375 0.04125 1.5675 0.0825 2.375 0.125 C2.375 1.115 2.375 2.105 2.375 3.125 C6.995 3.125 11.615 3.125 16.375 3.125 C16.375 4.445 16.375 5.765 16.375 7.125 C11.755 7.455 7.135 7.785 2.375 8.125 C2.705 11.095 3.035 14.065 3.375 17.125 C0.375 17.125 0.375 17.125 -1.75 15.3125 C-5.28574555 11.18746353 -4.87097552 7.29048599 -4.625 2.125 C-2.625 0.125 -2.625 0.125 0 0 Z " fill="#05B6D6" transform="translate(181.625,158.875)"/>
<path d="M0 0 C0.226875 0.61875 0.45375 1.2375 0.6875 1.875 C2.37929835 4.61410209 3.99244161 5.05024472 7 6 C7 6.66 7 7.32 7 8 C9.31 8 11.62 8 14 8 C14 8.99 14 9.98 14 11 C14.5775 11.2475 15.155 11.495 15.75 11.75 C18.32939979 13.18299988 20.06121592 14.78424676 22 17 C22 17.66 22 18.32 22 19 C25.3 19.33 28.6 19.66 32 20 C32 20.33 32 20.66 32 21 C30.41676312 21.027193 28.83338938 21.04648306 27.25 21.0625 C25.92742187 21.07990234 25.92742187 21.07990234 24.578125 21.09765625 C22.2181162 21.00826198 20.25501476 20.66912821 18 20 C18 19.01 18 18.02 18 17 C17.34 17 16.68 17 16 17 C16 16.34 16 15.68 16 15 C14.68 15 13.36 15 12 15 C12 14.34 12 13.68 12 13 C11.38511719 12.97421875 10.77023438 12.9484375 10.13671875 12.921875 C3.612529 12.46403712 3.612529 12.46403712 0.9375 10.4375 C-0.44027661 6.8552808 -0.19130045 3.82600906 0 0 Z " fill="#8018B9" transform="translate(92,145)"/>
<path d="M0 0 C0.99 0.33 1.98 0.66 3 1 C1.625 3 1.625 3 0 5 C-0.66 5 -1.32 5 -2 5 C-1.979375 6.093125 -1.95875 7.18625 -1.9375 8.3125 C-2 12 -2 12 -3 15 C-4.65 15 -6.3 15 -8 15 C-8 15.99 -8 16.98 -8 18 C-6.35 18 -4.7 18 -3 18 C-3 26.91 -3 35.82 -3 45 C-0.69 45 1.62 45 4 45 C4 36.75 4 28.5 4 20 C4.33 20 4.66 20 5 20 C5 28.58 5 37.16 5 46 C2.03 46 -0.94 46 -4 46 C-4 37.42 -4 28.84 -4 20 C-5.98 20 -7.96 20 -10 20 C-10 17.36 -10 14.72 -10 12 C-8.35 12 -6.7 12 -5 12 C-4.814375 10.3603125 -4.814375 10.3603125 -4.625 8.6875 C-4 5 -4 5 -2 2 C-1.34 2 -0.68 2 0 2 C0 1.34 0 0.68 0 0 Z " fill="#A648B9" transform="translate(283,135)"/>
<path d="M0 0 C2.97 0 5.94 0 9 0 C9 3.44138824 8.15073076 5.38139859 6.8125 8.54296875 C6.36132812 9.61611328 5.91015625 10.68925781 5.4453125 11.79492188 C4.96835937 12.91447266 4.49140625 14.03402344 4 15.1875 C3.52304687 16.31865234 3.04609375 17.44980469 2.5546875 18.61523438 C1.37453251 21.41220171 0.18946122 24.20698056 -1 27 C-1.94314127 23.58389775 -2.08065117 20.54865136 -2 17 C-1.34 16.67 -0.68 16.34 0 16 C0.33 15.01 0.66 14.02 1 13 C1.66 13 2.32 13 3 13 C2.67 10.69 2.34 8.38 2 6 C1.01 6.495 1.01 6.495 0 7 C-0.12375 7.639375 -0.2475 8.27875 -0.375 8.9375 C-1 11 -1 11 -3.0390625 12.12890625 C-3.68617188 12.41636719 -4.33328125 12.70382813 -5 13 C-4.54554036 11.58208592 -4.08625056 10.16571954 -3.625 8.75 C-3.24214844 7.56664062 -3.24214844 7.56664062 -2.8515625 6.359375 C-2 4 -2 4 0 0 Z " fill="#09B3D0" transform="translate(324,147)"/>
<path d="M0 0 C3.3 0 6.6 0 10 0 C11.19583104 3.58749311 11.01782444 6.292557 10.87890625 10.07421875 C10.85529526 10.7580513 10.83168427 11.44188385 10.80735779 12.1464386 C10.7308855 14.32701226 10.64679119 16.50721595 10.5625 18.6875 C10.50926281 20.1672997 10.45652252 21.64711738 10.40429688 23.12695312 C10.27529303 26.75152817 10.13945273 30.37581023 10 34 C6.7 34 3.4 34 0 34 C0 22.78 0 11.56 0 0 Z M2 2 C2 12.23 2 22.46 2 33 C4.31 33 6.62 33 9 33 C9.02465622 28.74585377 9.04283899 24.49174502 9.05493164 20.23754883 C9.05997101 18.78929927 9.06680253 17.34105483 9.07543945 15.89282227 C9.08752247 13.81525412 9.09323211 11.73775303 9.09765625 9.66015625 C9.10289307 8.40855713 9.10812988 7.15695801 9.11352539 5.86743164 C9.32887035 3.10267706 9.32887035 3.10267706 8 2 C6.02 2 4.04 2 2 2 Z " fill="#9648AF" transform="translate(259,147)"/>
<path d="M0 0 C0 4.29 0 8.58 0 13 C-1.32 13 -2.64 13 -4 13 C-4 12.34 -4 11.68 -4 11 C-5.65 10.67 -7.3 10.34 -9 10 C-9 9.34 -9 8.68 -9 8 C-12.11785113 8.64644661 -12.11785113 8.64644661 -13 11 C-13.99 11 -14.98 11 -16 11 C-15.34 9.35 -14.68 7.7 -14 6 C-13.34 6 -12.68 6 -12 6 C-12 5.34 -12 4.68 -12 4 C-10.75539217 3.32332002 -9.50403104 2.65905281 -8.25 2 C-7.55390625 1.62875 -6.8578125 1.2575 -6.140625 0.875 C-4 0 -4 0 0 0 Z " fill="#471173" transform="translate(90,109)"/>
<path d="M0 0 C0.33 0 0.66 0 1 0 C1 3.3 1 6.6 1 10 C5.62 10 10.24 10 15 10 C15 10.33 15 10.66 15 11 C12.36 11 9.72 11 7 11 C7 11.99 7 12.98 7 14 C7.99 14.33 8.98 14.66 10 15 C10 16.98 10 18.96 10 21 C9.01 21 8.02 21 7 21 C6.731875 20.360625 6.46375 19.72125 6.1875 19.0625 C5.11332248 16.66868314 5.11332248 16.66868314 2 16 C2 15.34 2 14.68 2 14 C0.68 14 -0.64 14 -2 14 C-2.33 12.35 -2.66 10.7 -3 9 C-3.66 9 -4.32 9 -5 9 C-5 7.02 -5 5.04 -5 3 C-4.67 3 -4.34 3 -4 3 C-4 4.65 -4 6.3 -4 8 C-1.53721199 5.53721199 -1.00228745 3.29323018 0 0 Z " fill="#AB1DDE" transform="translate(109,139)"/>
<path d="M0 0 C3 0.4375 3 0.4375 6 2.4375 C6.39907251 5.56356798 6.46880951 7.58261207 4.9375 10.375 C1.87530347 12.05426907 -0.69370941 11.12371125 -4 10.4375 C-5.1875 8.25 -5.1875 8.25 -6 5.4375 C-4.66144284 1.67280798 -4.02519158 0.58700711 0 0 Z " fill="#C94AD6" transform="translate(264,131.5625)"/>
<path d="M0 0 C0.33 0 0.66 0 1 0 C1.59819839 6.48712925 1.25836942 11.14487723 -2.5546875 16.5703125 C-4 18 -4 18 -6.8125 18.5 C-7.534375 18.335 -8.25625 18.17 -9 18 C-9.66 19.32 -10.32 20.64 -11 22 C-11.33 21.01 -11.66 20.02 -12 19 C-13.65 19.33 -15.3 19.66 -17 20 C-17 18.35 -17 16.7 -17 15 C-16.34 15.66 -15.68 16.32 -15 17 C-15.33 15.68 -15.66 14.36 -16 13 C-14.0625 13.375 -14.0625 13.375 -12 14 C-11.67 14.66 -11.34 15.32 -11 16 C-8.97536745 16.65213292 -8.97536745 16.65213292 -7 17 C-7 14.36 -7 11.72 -7 9 C-6.67 9 -6.34 9 -6 9 C-5.67 6.36 -5.34 3.72 -5 1 C-4.34 1 -3.68 1 -3 1 C-2.875 7.625 -2.875 7.625 -4 11 C-3.34 11 -2.68 11 -2 11 C-1.34 7.37 -0.68 3.74 0 0 Z " fill="#B21882" transform="translate(193,107)"/>
<path d="M0 0 C13 0 13 0 15 1 C14.67 1.99 14.34 2.98 14 4 C11.4375 5.1875 11.4375 5.1875 9 6 C8.34 5.01 7.68 4.02 7 3 C5.68 2.67 4.36 2.34 3 2 C2.67 12.56 2.34 23.12 2 34 C1.34 34 0.68 34 0 34 C0 22.78 0 11.56 0 0 Z " fill="#137E98" transform="translate(216,147)"/>
<path d="M0 0 C0.103125 0.639375 0.20625 1.27875 0.3125 1.9375 C0.539375 2.618125 0.76625 3.29875 1 4 C1.99 4.33 2.98 4.66 4 5 C5.6875 6.25 5.6875 6.25 7 8 C7.1875 10.6875 7.1875 10.6875 7 13 C7.66 13 8.32 13 9 13 C8.75 16.375 8.75 16.375 8 20 C5.9375 21.4375 5.9375 21.4375 4 22 C4 19.36 4 16.72 4 14 C3.34 14 2.68 14 2 14 C1.67 13.01 1.34 12.02 1 11 C0.34 10.67 -0.32 10.34 -1 10 C-1.4140625 7.93359375 -1.4140625 7.93359375 -1.625 5.4375 C-1.69976562 4.61121094 -1.77453125 3.78492188 -1.8515625 2.93359375 C-1.90054687 2.29550781 -1.94953125 1.65742188 -2 1 C-1.34 0.67 -0.68 0.34 0 0 Z " fill="#05B6D6" transform="translate(307,162)"/>
<path d="M0 0 C0.55808089 1.43120744 1.09596462 2.87030355 1.625 4.3125 C1.92664063 5.11300781 2.22828125 5.91351563 2.5390625 6.73828125 C2.76722656 7.85783203 2.76722656 7.85783203 3 9 C2.01 10.485 2.01 10.485 1 12 C-1.97 11.505 -1.97 11.505 -5 11 C-5.33 10.01 -5.66 9.02 -6 8 C-7.49985609 6.33289654 -7.49985609 6.33289654 -9 5 C-6.96456769 -0.67013285 -5.87860125 -1.3923003 0 0 Z " fill="#09C1EA" transform="translate(82,165)"/>
<path d="M0 0 C0.53625 0.474375 1.0725 0.94875 1.625 1.4375 C4.43926565 3.28899056 6.68969499 3.56822109 10 4 C10.66 4.33 11.32 4.66 12 5 C12 5.66 12 6.32 12 7 C13.32 7 14.64 7 16 7 C16 7.66 16 8.32 16 9 C16.66 9 17.32 9 18 9 C18 9.99 18 10.98 18 12 C19.32 12.33 20.64 12.66 22 13 C18.37 13 14.74 13 11 13 C11 12.34 11 11.68 11 11 C10.38125 10.938125 9.7625 10.87625 9.125 10.8125 C7 10 7 10 5.75 7.4375 C5.5025 6.633125 5.255 5.82875 5 5 C3.35 5 1.7 5 0 5 C0 3.35 0 1.7 0 0 Z " fill="#601094" transform="translate(92,153)"/>
<path d="M0 0 C0.33 0 0.66 0 1 0 C1.09796875 0.91523438 1.1959375 1.83046875 1.296875 2.7734375 C1.44640625 3.96195313 1.5959375 5.15046875 1.75 6.375 C1.88921875 7.55835938 2.0284375 8.74171875 2.171875 9.9609375 C2.67611298 13.1088608 2.67611298 13.1088608 5.078125 14.4140625 C5.71234375 14.60742188 6.3465625 14.80078125 7 15 C7 15.66 7 16.32 7 17 C7.99 17.33 8.98 17.66 10 18 C10.33 18.66 10.66 19.32 11 20 C17.27 20 23.54 20 30 20 C29.67 20.66 29.34 21.32 29 22 C21.88648464 24.37117179 16.23931403 24.11146659 9 22 C9 21.34 9 20.68 9 20 C8.2575 19.835 7.515 19.67 6.75 19.5 C2.69381224 17.28753395 1.31248083 14.36059204 0 10 C-0.30124164 6.63374425 -0.24845033 3.36788224 0 0 Z " fill="#1589A7" transform="translate(175,159)"/>
<path d="M0 0 C1.32 0 2.64 0 4 0 C4 6.93 4 13.86 4 21 C2.68 21.33 1.36 21.66 0 22 C0 14.74 0 7.48 0 0 Z " fill="#EB49F2" transform="translate(163,149)"/>
<path d="M0 0 C1.32 0 2.64 0 4 0 C4 1.32 4 2.64 4 4 C6.70590396 4.95367452 6.70590396 4.95367452 10 5 C12.3586498 3.57631048 14.00702837 1.94551992 16 0 C18 2 18 2 18 10 C9.585 8.02 9.585 8.02 1 6 C1 7.65 1 9.3 1 11 C0.67 11 0.34 11 0 11 C0 7.37 0 3.74 0 0 Z " fill="#3DAAF7" transform="translate(72,153)"/>
<path d="M0 0 C0.33 0.66 0.66 1.32 1 2 C2.32 2 3.64 2 5 2 C5.33 3.98 5.66 5.96 6 8 C4.35 7.01 2.7 6.02 1 5 C1.020625 6.134375 1.04125 7.26875 1.0625 8.4375 C1 12 1 12 0 13 C-0.15996166 15.59153107 -0.25938697 18.1595202 -0.31640625 20.75390625 C-0.33718735 21.52935287 -0.35796844 22.3047995 -0.37937927 23.10374451 C-0.44495802 25.58990308 -0.50379799 28.07617045 -0.5625 30.5625 C-0.60567733 32.24415204 -0.64929136 33.92579294 -0.69335938 35.60742188 C-0.80064779 39.73816871 -0.90189132 43.86902536 -1 48 C-1.33 48 -1.66 48 -2 48 C-2.04969113 42.44988284 -2.08585685 36.89989718 -2.10986328 31.34960938 C-2.11987847 29.46416974 -2.13349452 27.57874547 -2.15087891 25.69335938 C-2.17532532 22.97261751 -2.18652816 20.25208223 -2.1953125 17.53125 C-2.20563507 16.69758911 -2.21595764 15.86392822 -2.22659302 15.00500488 C-2.22759968 9.67237609 -1.48724147 5.12557962 0 0 Z " fill="#4C50AE" transform="translate(73,123)"/>
<path d="M0 0 C0.66 0 1.32 0 2 0 C5.23485503 4.65819125 6.13177129 8.38950888 6.09765625 13.984375 C6.09282227 15.38623047 6.09282227 15.38623047 6.08789062 16.81640625 C6.07951172 17.78449219 6.07113281 18.75257813 6.0625 19.75 C6.05798828 20.73355469 6.05347656 21.71710938 6.04882812 22.73046875 C6.03706483 25.15370791 6.02062684 27.57682273 6 30 C5.34 30 4.68 30 4 30 C3.67 22.41 3.34 14.82 3 7 C2.01 7 1.02 7 0 7 C0 4.69 0 2.38 0 0 Z " fill="#146C8D" transform="translate(246,150)"/>
<path d="M0 0 C5.61 0 11.22 0 17 0 C22 10.75 22 10.75 22 13 C19 12 19 12 18.05078125 10.2578125 C17.80714844 9.55398437 17.56351562 8.85015625 17.3125 8.125 C17.06113281 7.42632812 16.80976563 6.72765625 16.55078125 6.0078125 C16 4 16 4 16 1 C14.02 1 12.04 1 10 1 C10.28875 1.515625 10.5775 2.03125 10.875 2.5625 C13.0005063 7.16776364 14.52730554 11.06062889 13 16 C9.95842058 10.77228537 8.49389276 7.07328688 9 1 C6.03 1 3.06 1 0 1 C0 0.67 0 0.34 0 0 Z " fill="#2F78A9" transform="translate(288,147)"/>
<path d="M0 0 C0.33 0 0.66 0 1 0 C1 2.97 1 5.94 1 9 C-11.375 9.495 -11.375 9.495 -24 10 C-23.01 11.32 -22.02 12.64 -21 14 C-22.65 14.33 -24.3 14.66 -26 15 C-26.33 12.36 -26.66 9.72 -27 7 C-17.93664124 6.89765341 -9.01824887 6.93003827 0 8 C0 5.36 0 2.72 0 0 Z " fill="#168EAA" transform="translate(210,159)"/>
<path d="M0 0 C0.33 0.66 0.66 1.32 1 2 C1.99 1.01 2.98 0.02 4 -1 C4.66 -0.01 5.32 0.98 6 2 C6.99 2.33 7.98 2.66 9 3 C8.67 4.32 8.34 5.64 8 7 C3.36618175 6.56284733 1.23285535 6.23285535 -2 3 C-4.65466049 3.23043864 -4.65466049 3.23043864 -7 4 C-7.33 5.65 -7.66 7.3 -8 9 C-8.33 9 -8.66 9 -9 9 C-8.88637738 7.5199159 -8.75877092 6.04089926 -8.625 4.5625 C-8.55539063 3.73878906 -8.48578125 2.91507812 -8.4140625 2.06640625 C-8.27742188 1.38449219 -8.14078125 0.70257813 -8 0 C-5.09660535 -1.45169732 -3.09125158 -0.72348441 0 0 Z " fill="#6432BC" transform="translate(80,122)"/>
<path d="M0 0 C4.95 0 9.9 0 15 0 C15.33 2.31 15.66 4.62 16 7 C12.81175432 8.59412284 9.37103338 8.10174735 5.875 8.0625 C5.12089844 8.05798828 4.36679688 8.05347656 3.58984375 8.04882812 C1.72652873 8.03703499 -0.13674555 8.01909942 -2 8 C-1.33333333 5.33333333 -0.66666667 2.66666667 0 0 Z M1 2.375 C-0.17469914 3.96587907 -0.17469914 3.96587907 0 6 C1.74906659 6.19601608 3.49931846 6.38147403 5.25 6.5625 C6.71179688 6.71912109 6.71179688 6.71912109 8.203125 6.87890625 C10.7631352 6.98974468 12.58148159 6.77738092 15 6 C13.6910428 2.87802522 13.6910428 2.87802522 11 1 C5.68183635 0.44906884 5.68183635 0.44906884 1 2.375 Z " fill="#0B728D" transform="translate(186,154)"/>
<path d="M0 0 C0.66 0.33 1.32 0.66 2 1 C1.505 1.53625 1.01 2.0725 0.5 2.625 C-1.53399299 5.37731796 -1.53399299 5.37731796 -1 11 C3.29 11.33 7.58 11.66 12 12 C12 12.66 12 13.32 12 14 C9.93867858 14.10864945 7.87568679 14.18588321 5.8125 14.25 C4.08966797 14.31960937 4.08966797 14.31960937 2.33203125 14.390625 C-1.60353399 13.92924572 -3.17745787 12.70028512 -6 10 C-5.49477778 5.62140745 -2.82172778 3.18348776 0 0 Z " fill="#1E9EB7" transform="translate(91,175)"/>
<path d="M0 0 C7.15080215 0.30428945 13.67932803 1.47500986 20 5 C20.99 6.485 20.99 6.485 22 8 C20.35 9.32 18.7 10.64 17 12 C17 10.02 17 8.04 17 6 C16.37351562 5.86722656 15.74703125 5.73445312 15.1015625 5.59765625 C14.28429687 5.42105469 13.46703125 5.24445313 12.625 5.0625 C11.81289062 4.88847656 11.00078125 4.71445313 10.1640625 4.53515625 C8 4 8 4 6 3 C4.00039988 2.960008 1.99952758 2.95653201 0 3 C0 2.01 0 1.02 0 0 Z " fill="#28B1F4" transform="translate(73,159)"/>
<path d="M0 0 C1.45823212 -0.0270043 2.91660675 -0.04639787 4.375 -0.0625 C5.18710938 -0.07410156 5.99921875 -0.08570313 6.8359375 -0.09765625 C9 0 9 0 11 1 C11 9.25 11 17.5 11 26 C13.64 26 16.28 26 19 26 C19 26.33 19 26.66 19 27 C16.03 27.33 13.06 27.66 10 28 C9.9906543 27.35450195 9.98130859 26.70900391 9.97167969 26.04394531 C9.91790899 23.11186056 9.8342766 20.18135992 9.75 17.25 C9.73582031 16.23421875 9.72164062 15.2184375 9.70703125 14.171875 C9.61412169 8.39195972 9.61412169 8.39195972 7.125 3.34375 C4.73105073 1.82992914 2.80288248 1.31143139 0 1 C0 0.67 0 0.34 0 0 Z " fill="#1A98BA" transform="translate(232,154)"/>
<path d="M0 0 C12.94622458 -1.06199498 12.94622458 -1.06199498 17.7421875 1.41796875 C21.12721812 4.32562326 23.22646818 6.51748226 24 11 C23.01 11 22.02 11 21 11 C20.67 11.66 20.34 12.32 20 13 C20 11.02 20 9.04 20 7 C19.01 7.33 18.02 7.66 17 8 C17 6.68 17 5.36 17 4 C15.35 3.67 13.7 3.34 12 3 C12 2.34 12 1.68 12 1 C8.04 1 4.08 1 0 1 C0 0.67 0 0.34 0 0 Z " fill="#109CB7" transform="translate(186,147)"/>
<path d="M0 0 C2.375 0.25 2.375 0.25 5 1 C6.1875 3 6.1875 3 7 5 C7.66 5.33 8.32 5.66 9 6 C9 5.34 9 4.68 9 4 C9.66 4 10.32 4 11 4 C11.12375 4.639375 11.2475 5.27875 11.375 5.9375 C11.58125 6.618125 11.7875 7.29875 12 8 C12.66 8.33 13.32 8.66 14 9 C13.01 9.33 12.02 9.66 11 10 C11 10.99 11 11.98 11 13 C10.34 13 9.68 13 9 13 C9 12.01 9 11.02 9 10 C8.01 10 7.02 10 6 10 C5.67 8.35 5.34 6.7 5 5 C3.68 4.67 2.36 4.34 1 4 C0.67 2.68 0.34 1.36 0 0 Z " fill="#A819DA" transform="translate(135,166)"/>
<path d="M0 0 C0.33 0.99 0.66 1.98 1 3 C1.66 3.33 2.32 3.66 3 4 C1.78763672 4.05607422 1.78763672 4.05607422 0.55078125 4.11328125 C-0.51785156 4.17902344 -1.58648437 4.24476563 -2.6875 4.3125 C-3.74324219 4.37050781 -4.79898438 4.42851562 -5.88671875 4.48828125 C-9.23009964 5.03782064 -11.23526262 6.08674018 -14 8 C-14.33 7.34 -14.66 6.68 -15 6 C-14 3 -14 3 -10.875 1.3125 C-7.20642866 -0.14581407 -3.94606007 -0.24159551 0 0 Z " fill="#26B7F6" transform="translate(107,170)"/>
<path d="M0 0 C0.99 0.33 1.98 0.66 3 1 C3 2.32 3 3.64 3 5 C2.01 5 1.02 5 0 5 C0 5.66 0 6.32 0 7 C-3.3 7 -6.6 7 -10 7 C-9.67 6.01 -9.34 5.02 -9 4 C-5.5625 2.375 -5.5625 2.375 -2 1 C-1.34 0.67 -0.68 0.34 0 0 Z " fill="#05B6D7" transform="translate(310,185)"/>
<path d="M0 0 C1.32 0.66 2.64 1.32 4 2 C-1.493992 6.85757212 -6.42829795 10.75102721 -14 11 C-17.0625 10.125 -17.0625 10.125 -19 9 C-18.67 8.34 -18.34 7.68 -18 7 C-17.34 7.33 -16.68 7.66 -16 8 C-14.29297265 8.06996014 -12.58331997 8.08440154 -10.875 8.0625 C-9.96492187 8.05347656 -9.05484375 8.04445312 -8.1171875 8.03515625 C-7.41851562 8.02355469 -6.71984375 8.01195312 -6 8 C-5.88785156 7.38640625 -5.77570313 6.7728125 -5.66015625 6.140625 C-4.69487938 3.01061479 -2.5950263 1.86309581 0 0 Z " fill="#A81B7C" transform="translate(177,128)"/>
<path d="M0 0 C0.66 0.33 1.32 0.66 2 1 C5.28976808 2.09658936 6.71303767 1.79953138 10 1 C10 2.98 10 4.96 10 7 C9.67 5.68 9.34 4.36 9 3 C6.00007271 4.29144978 6.00007271 4.29144978 3 6 C2.67 6.99 2.34 7.98 2 9 C2.66 9.33 3.32 9.66 4 10 C3.01 10.33 2.02 10.66 1 11 C0.34 9.35 -0.32 7.7 -1 6 C-1.66 7.32 -2.32 8.64 -3 10 C-3.36923077 4.58461538 -3.36923077 4.58461538 -1.5 1.625 C-1.005 1.08875 -0.51 0.5525 0 0 Z " fill="#A31A7C" transform="translate(160,124)"/>
<path d="M0 0 C0.66 0 1.32 0 2 0 C2.33 2.97 2.66 5.94 3 9 C4.65 9.33 6.3 9.66 8 10 C8 7.36 8 4.72 8 2 C8.33 2 8.66 2 9 2 C9 4.97 9 7.94 9 11 C7.20906809 11.08086147 5.41710372 11.13912702 3.625 11.1875 C2.12839844 11.23970703 2.12839844 11.23970703 0.6015625 11.29296875 C-0.25695312 11.19628906 -1.11546875 11.09960938 -2 11 C-2.66 10.01 -3.32 9.02 -4 8 C-2.625 6.5 -2.625 6.5 -1 5 C-0.34 5 0.32 5 1 5 C0.67 3.35 0.34 1.7 0 0 Z " fill="#0EAFCE" transform="translate(201,156)"/>
<path d="M0 0 C0.66 0 1.32 0 2 0 C3.0625 2.375 3.0625 2.375 4 5 C3.67 5.66 3.34 6.32 3 7 C2.34 7 1.68 7 1 7 C0.9175 7.61875 0.835 8.2375 0.75 8.875 C0 11 0 11 -2.0625 12.25 C-2.701875 12.4975 -3.34125 12.745 -4 13 C-3.67 10.36 -3.34 7.72 -3 5 C-2.34 5 -1.68 5 -1 5 C-0.67 3.35 -0.34 1.7 0 0 Z " fill="#03B6D6" transform="translate(324,153)"/>
<path d="M0 0 C6.15234375 -0.09765625 6.15234375 -0.09765625 8 0 C9 1 9 1 9.1875 4.8125 C9.1585691 8.03540201 8.82970185 10.25544723 7 13 C6.34 13 5.68 13 5 13 C5.33 9.7 5.66 6.4 6 3 C3.03 2.505 3.03 2.505 0 2 C0 1.34 0 0.68 0 0 Z " fill="#DC2099" transform="translate(184,105)"/>
<path d="M0 0 C3.68754757 0.49831724 5.60490662 1.10067643 8 4 C7.67 4.99 7.34 5.98 7 7 C6.608125 6.34 6.21625 5.68 5.8125 5 C4.14583333 2.70833333 4.14583333 2.70833333 1.3125 2.75 C0.549375 2.8325 -0.21375 2.915 -1 3 C-1 3.66 -1 4.32 -1 5 C-4.3 5 -7.6 5 -11 5 C-11 4.01 -11 3.02 -11 2 C-7.37 2 -3.74 2 0 2 C0 1.34 0 0.68 0 0 Z " fill="#128EA8" transform="translate(201,171)"/>
<path d="M0 0 C5.71658336 -0.45732667 8.48649253 0.47726246 13 4 C12.67 4.99 12.34 5.98 12 7 C11.34 7 10.68 7 10 7 C10 6.34 10 5.68 10 5 C8.35 4.67 6.7 4.34 5 4 C5 3.34 5 2.68 5 2 C1.88214887 2.64644661 1.88214887 2.64644661 1 5 C0.01 5 -0.98 5 -2 5 C-1.34 3.35 -0.68 1.7 0 0 Z " fill="#521990" transform="translate(76,115)"/>
<path d="M0 0 C0.33 0.66 0.66 1.32 1 2 C3.58605332 2.4683265 3.58605332 2.4683265 6.5625 2.625 C8.08037109 2.73714844 8.08037109 2.73714844 9.62890625 2.8515625 C10.80259766 2.92503906 10.80259766 2.92503906 12 3 C10.76171875 4.984375 10.76171875 4.984375 9 7 C6.23857697 7.52799676 3.83634455 7.18598981 1 7 C0.67 4.69 0.34 2.38 0 0 Z " fill="#670E9B" transform="translate(135,177)"/>
<path d="M0 0 C6.6 0 13.2 0 20 0 C20 5.94 20 11.88 20 18 C19.01 18 18.02 18 17 18 C17.66 12.39 18.32 6.78 19 1 C12.73 1 6.46 1 0 1 C0 0.67 0 0.34 0 0 Z " fill="#6491F2" transform="translate(111,169)"/>
<path d="M0 0 C1.45606519 4.52092968 0.27032841 7.51648796 -1 12 C-3.9375 10.6875 -3.9375 10.6875 -7 9 C-7.33 8.01 -7.66 7.02 -8 6 C-7.67 5.34 -7.34 4.68 -7 4 C-7.66 4 -8.32 4 -9 4 C-9 3.01 -9 2.02 -9 1 C-8.01 1.33 -7.02 1.66 -6 2 C-4.8125 4.5625 -4.8125 4.5625 -4 7 C-2.10786631 4.61426621 -0.97608217 2.92824652 0 0 Z " fill="#1087A4" transform="translate(318,160)"/>
<path d="M0 0 C0.66 0 1.32 0 2 0 C1.34 1.65 0.68 3.3 0 5 C-1.65 5 -3.3 5 -5 5 C-5 5.66 -5 6.32 -5 7 C-4.34 7.33 -3.68 7.66 -3 8 C-7.43076923 10.09230769 -7.43076923 10.09230769 -10.3125 9.625 C-10.869375 9.41875 -11.42625 9.2125 -12 9 C-11.67 8.01 -11.34 7.02 -11 6 C-8.75 4.90234375 -8.75 4.90234375 -6 3.9375 C-2.24038831 2.8621011 -2.24038831 2.8621011 0 0 Z " fill="#C51E8D" transform="translate(173,117)"/>
<path d="M0 0 C2.97 0 5.94 0 9 0 C9 2.95274099 8.56108169 4.49058403 7.5 7.1875 C7.2215625 7.90292969 6.943125 8.61835938 6.65625 9.35546875 C6.4396875 9.89816406 6.223125 10.44085938 6 11 C5.67 11 5.34 11 5 11 C5 8.03 5 5.06 5 2 C3.02 2.66 1.04 3.32 -1 4 C-0.67 2.68 -0.34 1.36 0 0 Z " fill="#1691A7" transform="translate(324,147)"/>
<path d="M0 0 C0.33 0 0.66 0 1 0 C1.33 5.61 1.66 11.22 2 17 C3.98 17 5.96 17 8 17 C6.8125 18.5 6.8125 18.5 5 20 C3.35 20 1.7 20 0 20 C0 13.4 0 6.8 0 0 Z " fill="#400D6B" transform="translate(134,167)"/>
<path d="M0 0 C0.598125 0.226875 1.19625 0.45375 1.8125 0.6875 C2.1425 2.3375 2.4725 3.9875 2.8125 5.6875 C0.5025 6.0175 -1.8075 6.3475 -4.1875 6.6875 C-4.875 4.875 -4.875 4.875 -5.1875 2.6875 C-3.58493056 0.24147296 -2.95482043 -0.4221172 0 0 Z " fill="#12ABC9" transform="translate(204.1875,173.3125)"/>
<path d="M0 0 C0.79921875 0.11085937 1.5984375 0.22171875 2.421875 0.3359375 C3.32679688 0.47902344 3.32679688 0.47902344 4.25 0.625 C5.33174162 3.99041838 5.17538169 4.92347322 4.25 8.625 C1.28 8.625 -1.69 8.625 -4.75 8.625 C-4.75 8.295 -4.75 7.965 -4.75 7.625 C-2.11 7.625 0.53 7.625 3.25 7.625 C3.25 5.975 3.25 4.325 3.25 2.625 C-0.8027516 1.64251476 -4.58861737 1.54340426 -8.75 1.625 C-5.5750906 -0.2828584 -3.64414789 -0.5359041 0 0 Z " fill="#823A97" transform="translate(293.75,133.375)"/>
<path d="M0 0 C1.89668064 2.84502097 3.23263478 5.57299885 4.625 8.6875 C5.07101563 9.68136719 5.51703125 10.67523438 5.9765625 11.69921875 C6.31429687 12.45847656 6.65203125 13.21773437 7 14 C5.0625 13.1875 5.0625 13.1875 3 12 C2.67 11.01 2.34 10.02 2 9 C1.01 8.67 0.02 8.34 -1 8 C-1.04241723 5.66705225 -1.04092937 3.33297433 -1 1 C-0.67 0.67 -0.34 0.34 0 0 Z " fill="#B71DDE" transform="translate(94,134)"/>
<path d="M0 0 C0.66 0.33 1.32 0.66 2 1 C1.67 2.65 1.34 4.3 1 6 C3.475 6.99 3.475 6.99 6 8 C5.67 8.99 5.34 9.98 5 11 C4.67 10.34 4.34 9.68 4 9 C1.03 9.66 -1.94 10.32 -5 11 C-4.67 10.34 -4.34 9.68 -4 9 C-3.34 9 -2.68 9 -2 9 C-1.855625 8.071875 -1.71125 7.14375 -1.5625 6.1875 C-1 3 -1 3 0 0 Z " fill="#B5177E" transform="translate(180,106)"/>
<path d="M0 0 C0 0.66 0 1.32 0 2 C-0.66 2 -1.32 2 -2 2 C-2 3.32 -2 4.64 -2 6 C-4.4375 7.625 -4.4375 7.625 -7 9 C-7.33 9.66 -7.66 10.32 -8 11 C-8.66 11 -9.32 11 -10 11 C-8.85791626 6.08903993 -5.88128996 0 0 0 Z " fill="#158BAC" transform="translate(186,148)"/>
<path d="M0 0 C0.66 0 1.32 0 2 0 C0.25192871 5.46737191 -1.65794081 10.75824848 -4 16 C-5.04005702 12.61981469 -5.08004482 9.5219721 -5 6 C-4.34 5.67 -3.68 5.34 -3 5 C-2.67 4.01 -2.34 3.02 -2 2 C-1.34 2 -0.68 2 0 2 C0 1.34 0 0.68 0 0 Z " fill="#1092AC" transform="translate(327,158)"/>
<path d="M0 0 C2.97 0 5.94 0 9 0 C9 2.31 9 4.62 9 7 C6.03 7 3.06 7 0 7 C0 6.34 0 5.68 0 5 C2.31 5 4.62 5 7 5 C7 3.68 7 2.36 7 1 C4.69 1 2.38 1 0 1 C0 0.67 0 0.34 0 0 Z " fill="#B75AD5" transform="translate(288,148)"/>
<path d="M0 0 C1.485 0.99 1.485 0.99 3 2 C3 2.66 3 3.32 3 4 C4.7015625 3.9690625 4.7015625 3.9690625 6.4375 3.9375 C10 4 10 4 11 5 C11.04080783 6.99958364 11.04254356 9.00045254 11 11 C9.6696875 9.8553125 9.6696875 9.8553125 8.3125 8.6875 C6.27547286 6.96981678 4.46964749 5.70023554 2.125 4.375 C1.42375 3.92125 0.7225 3.4675 0 3 C0 2.01 0 1.02 0 0 Z " fill="#6F42D4" transform="translate(78,124)"/>
<path d="M0 0 C0.928125 0.103125 1.85625 0.20625 2.8125 0.3125 C2.8125 0.6425 2.8125 0.9725 2.8125 1.3125 C1.1625 1.6425 -0.4875 1.9725 -2.1875 2.3125 C-2.5175 4.6225 -2.8475 6.9325 -3.1875 9.3125 C-0.2175 9.8075 -0.2175 9.8075 2.8125 10.3125 C2.8125 10.6425 2.8125 10.9725 2.8125 11.3125 C0.5025 10.9825 -1.8075 10.6525 -4.1875 10.3125 C-5.375 8.125 -5.375 8.125 -6.1875 5.3125 C-4.80000798 1.41017869 -4.20530803 0.4122851 0 0 Z " fill="#793492" transform="translate(264.1875,131.6875)"/>
<path d="M0 0 C0.66 0 1.32 0 2 0 C1.67 2.31 1.34 4.62 1 7 C3.31 7 5.62 7 8 7 C4.91190305 8.76462683 3.76687864 9 0 9 C0 8.01 0 7.02 0 6 C-1.65 6.33 -3.3 6.66 -5 7 C-4.67 6.34 -4.34 5.68 -4 5 C-3.34 5 -2.68 5 -2 5 C-1.7834375 4.0409375 -1.7834375 4.0409375 -1.5625 3.0625 C-1 1 -1 1 0 0 Z " fill="#CF4CD8" transform="translate(287,142)"/>
<path d="M0 0 C2 3 2 3 2 6 C1.34 6 0.68 6 0 6 C0 6.66 0 7.32 0 8 C-1.65 8 -3.3 8 -5 8 C-4.45773019 4.20411134 -2.79872437 2.52788007 0 0 Z " fill="#02C2E8" transform="translate(95,178)"/>
<path d="M0 0 C4.95 0 9.9 0 15 0 C15.33 1.98 15.66 3.96 16 6 C15.34 5.34 14.68 4.68 14 4 C9.91404767 1.27603178 7.84747463 1.53088955 3 2 C2.01 2.66 1.02 3.32 0 4 C0 2.68 0 1.36 0 0 Z " fill="#1190AB" transform="translate(186,154)"/>
<path d="M0 0 C2.4375 0.8125 2.4375 0.8125 5 2 C5.33 2.99 5.66 3.98 6 5 C9.00847418 6.22520264 9.00847418 6.22520264 12 7 C8.8168485 8.59157575 6.38676935 7.77242108 3 7 C1.0625 5.125 1.0625 5.125 0 3 C0 2.01 0 1.02 0 0 Z " fill="#7114A3" transform="translate(92,150)"/>
<path d="M0 0 C1.98 0.495 1.98 0.495 4 1 C4 1.66 4 2.32 4 3 C4.66 3 5.32 3 6 3 C5.67 4.32 5.34 5.64 5 7 C3.35 6.67 1.7 6.34 0 6 C-1.125 2.25 -1.125 2.25 0 0 Z " fill="#F217A7" transform="translate(181,117)"/>
<path d="M0 0 C0.268125 0.639375 0.53625 1.27875 0.8125 1.9375 C1.88667752 4.33131686 1.88667752 4.33131686 5 5 C4.67 5.99 4.34 6.98 4 8 C2.35 8.33 0.7 8.66 -1 9 C-1.09765625 2.84765625 -1.09765625 2.84765625 -1 1 C-0.67 0.67 -0.34 0.34 0 0 Z " fill="#E91CBF" transform="translate(94,121)"/>
<path d="M0 0 C2.475 0.495 2.475 0.495 5 1 C5 1.66 5 2.32 5 3 C8.3 3.33 11.6 3.66 15 4 C15 4.33 15 4.66 15 5 C11.37 5 7.74 5 4 5 C4 4.34 4 3.68 4 3 C2.68 2.67 1.36 2.34 0 2 C0 1.34 0 0.68 0 0 Z " fill="#53158A" transform="translate(99,161)"/>
<path d="M0 0 C0.66 0 1.32 0 2 0 C4.43160605 3.36683915 5 4.73350364 5 9 C4.34 9 3.68 9 3 9 C3 8.34 3 7.68 3 7 C2.01 7 1.02 7 0 7 C0 4.69 0 2.38 0 0 Z " fill="#1490AE" transform="translate(246,150)"/>
<path d="M0 0 C2.4178712 -0.10826289 4.83087556 -0.18739789 7.25 -0.25 C8.27287109 -0.30027344 8.27287109 -0.30027344 9.31640625 -0.3515625 C12.92181813 -0.4215705 14.64068812 -0.29151719 17.484375 2.015625 C17.98453125 2.67046875 18.4846875 3.3253125 19 4 C16.69 3.67 14.38 3.34 12 3 C12 2.34 12 1.68 12 1 C8.04 1 4.08 1 0 1 C0 0.67 0 0.34 0 0 Z " fill="#1A8EA9" transform="translate(186,147)"/>
<path d="M0 0 C0.99 0 1.98 0 3 0 C3.33 0.99 3.66 1.98 4 3 C3.34 3 2.68 3 2 3 C2 3.66 2 4.32 2 5 C1.34 5 0.68 5 0 5 C0 5.66 0 6.32 0 7 C-2.375 7.1875 -2.375 7.1875 -5 7 C-5.66 6.01 -6.32 5.02 -7 4 C-4.03 4.495 -4.03 4.495 -1 5 C-0.67 3.35 -0.34 1.7 0 0 Z " fill="#2193B0" transform="translate(84,172)"/>
<path d="M0 0 C1.32 0 2.64 0 4 0 C4 0.66 4 1.32 4 2 C7.3 2.33 10.6 2.66 14 3 C14 3.33 14 3.66 14 4 C12.41676312 4.027193 10.83338938 4.04648306 9.25 4.0625 C7.92742187 4.07990234 7.92742187 4.07990234 6.578125 4.09765625 C4.2181162 4.00826198 2.25501476 3.66912821 0 3 C0 2.01 0 1.02 0 0 Z " fill="#761EAB" transform="translate(110,162)"/>
<path d="M0 0 C0.66 0.33 1.32 0.66 2 1 C2 6.61 2 12.22 2 18 C1.67 18 1.34 18 1 18 C1 13.38 1 8.76 1 4 C0.01 4 -0.98 4 -2 4 C-2 3.01 -2 2.02 -2 1 C-1.34 0.67 -0.68 0.34 0 0 Z " fill="#6031A1" transform="translate(88,121)"/>
<path d="M0 0 C0.66 0.33 1.32 0.66 2 1 C1.67 1.99 1.34 2.98 1 4 C-1.5625 5.1875 -1.5625 5.1875 -4 6 C-4.66 5.01 -5.32 4.02 -6 3 C-8.05003955 1.80767387 -8.05003955 1.80767387 -10 1 C-7.98177083 1.03255208 -5.96354167 1.06510417 -3.9453125 1.09765625 C-1.91814596 1.12649242 -1.91814596 1.12649242 0 0 Z " fill="#0B9CB9" transform="translate(229,147)"/>
<path d="M0 0 C0.66 0 1.32 0 2 0 C0.45730076 4.72065967 -1.07794619 9.41664092 -3 14 C-3.98120464 10.94736336 -3.98120464 9.05263664 -3 6 C-2.34 6 -1.68 6 -1 6 C-1.020625 5.195625 -1.04125 4.39125 -1.0625 3.5625 C-1 1 -1 1 0 0 Z " fill="#127285" transform="translate(320,174)"/>
<path d="M0 0 C1.32 0.33 2.64 0.66 4 1 C4.66 3.31 5.32 5.62 6 8 C3.5625 6.8125 3.5625 6.8125 1 5 C0.1875 2.3125 0.1875 2.3125 0 0 Z " fill="#9215C8" transform="translate(136,170)"/>
<path d="M0 0 C0 0.66 0 1.32 0 2 C1.32 2.33 2.64 2.66 4 3 C0.04 2.67 -3.92 2.34 -8 2 C-8 1.34 -8 0.68 -8 0 C-4.94736336 -0.98120464 -3.05263664 -0.98120464 0 0 Z " fill="#A41ADB" transform="translate(128,162)"/>
<path d="M0 0 C1.21236328 0.01353516 1.21236328 0.01353516 2.44921875 0.02734375 C3.37154297 0.04474609 3.37154297 0.04474609 4.3125 0.0625 C4.3125 0.3925 4.3125 0.7225 4.3125 1.0625 C1.6725 1.0625 -0.9675 1.0625 -3.6875 1.0625 C-3.6875 2.0525 -3.6875 3.0425 -3.6875 4.0625 C-3.0275 4.3925 -2.3675 4.7225 -1.6875 5.0625 C-4.6575 4.5675 -4.6575 4.5675 -7.6875 4.0625 C-7.6875 3.0725 -7.6875 2.0825 -7.6875 1.0625 C-4.80538698 0.10179566 -2.98899956 -0.04331883 0 0 Z " fill="#B91DEC" transform="translate(119.6875,148.9375)"/>
<path d="M0 0 C-5.14285714 4.42857143 -5.14285714 4.42857143 -9 5 C-8.67 3.35 -8.34 1.7 -8 0 C-4.94736336 -0.98120464 -3.05263664 -0.98120464 0 0 Z " fill="#19B8E0" transform="translate(101,173)"/>
<path d="M0 0 C0.33 0 0.66 0 1 0 C1.103125 1.093125 1.20625 2.18625 1.3125 3.3125 C1.99727202 6.98536808 2.27919304 7.75237686 5 10 C5 10.66 5 11.32 5 12 C3.68 12 2.36 12 1 12 C-0.26237731 9.47524538 -0.09856404 7.68799534 -0.0625 4.875 C-0.05347656 3.96492187 -0.04445312 3.05484375 -0.03515625 2.1171875 C-0.02355469 1.41851562 -0.01195312 0.71984375 0 0 Z " fill="#7A17B1" transform="translate(135,167)"/>
<path d="M0 0 C0.33 0 0.66 0 1 0 C1.0825 0.9075 1.165 1.815 1.25 2.75 C2.09248732 6.40077839 3.17881618 7.63384583 6 10 C4.68 10.33 3.36 10.66 2 11 C2 10.34 2 9.68 2 9 C1.34 9 0.68 9 0 9 C0 6.03 0 3.06 0 0 Z " fill="#A228D1" transform="translate(92,136)"/>
<path d="M0 0 C1.98 0 3.96 0 6 0 C6 0.66 6 1.32 6 2 C5.34 2 4.68 2 4 2 C3.67 2.99 3.34 3.98 3 5 C2.01 5 1.02 5 0 5 C0 3.35 0 1.7 0 0 Z " fill="#12B0D9" transform="translate(298,148)"/>
<path d="M0 0 C0.33 0 0.66 0 1 0 C2.25 7.625 2.25 7.625 0 11 C-2.475 10.01 -2.475 10.01 -5 9 C-4.34 8.34 -3.68 7.68 -3 7 C-2.01 7 -1.02 7 0 7 C0 4.69 0 2.38 0 0 Z " fill="#C71A8F" transform="translate(170,125)"/>
<path d="M0 0 C0.66 0 1.32 0 2 0 C2.80967438 2.91482778 3.21845993 4.46113217 2.0625 7.3125 C1.5365625 8.1478125 1.5365625 8.1478125 1 9 C0.34 9 -0.32 9 -1 9 C-0.67 6.03 -0.34 3.06 0 0 Z " fill="#ED1AA0" transform="translate(190,109)"/>
<path d="M0 0 C0.99 0 1.98 0 3 0 C3.33 0.66 3.66 1.32 4 2 C6.02463255 2.65213292 6.02463255 2.65213292 8 3 C7.67 4.32 7.34 5.64 7 7 C1.125 3.375 1.125 3.375 0 0 Z " fill="#5E1EAD" transform="translate(78,117)"/>
<path d="M0 0 C2.39763185 2.39763185 2.34280586 3.33273498 2.625 6.625 C2.69976562 7.44226563 2.77453125 8.25953125 2.8515625 9.1015625 C2.92503906 10.04128906 2.92503906 10.04128906 3 11 C0.3534665 8.3534665 -0.59941997 5.43778736 -2 2 C-1.34 2 -0.68 2 0 2 C0 1.34 0 0.68 0 0 Z " fill="#1285A6" transform="translate(299,152)"/>
<path d="M0 0 C3.68754757 0.49831724 5.60490662 1.10067643 8 4 C7.67 4.99 7.34 5.98 7 7 C6.5875 6.360625 6.175 5.72125 5.75 5.0625 C3.82189513 2.79009069 2.88575819 2.39803561 0 2 C0 1.34 0 0.68 0 0 Z " fill="#157C94" transform="translate(201,171)"/>
<path d="M0 0 C0.99 0 1.98 0 3 0 C3 1.65 3 3.3 3 5 C1.35 4.67 -0.3 4.34 -2 4 C-1.34 2.68 -0.68 1.36 0 0 Z " fill="#07B4D8" transform="translate(202,173)"/>
<path d="M0 0 C1.32 1.32 2.64 2.64 4 4 C2.35 5.32 0.7 6.64 -1 8 C-0.67 5.36 -0.34 2.72 0 0 Z " fill="#267F9F" transform="translate(91,163)"/>
<path d="M0 0 C2.625 -0.1875 2.625 -0.1875 5 0 C4.34 1.65 3.68 3.3 3 5 C0.525 4.01 0.525 4.01 -2 3 C-1.34 2.01 -0.68 1.02 0 0 Z " fill="#BA1BEB" transform="translate(133,161)"/>
<path d="M0 0 C2.64 0.33 5.28 0.66 8 1 C8.33 1.99 8.66 2.98 9 4 C7.35 4 5.7 4 4 4 C4 3.34 4 2.68 4 2 C2.68 2 1.36 2 0 2 C0 1.34 0 0.68 0 0 Z " fill="#7B13B2" transform="translate(104,158)"/>
<path d="M0 0 C0.97687451 3.03916514 1.105817 4.98413546 0 8 C-0.66 8.66 -1.32 9.32 -2 10 C-2.25 3.375 -2.25 3.375 0 0 Z " fill="#6F64DD" transform="translate(73,128)"/>
<path d="M0 0 C0.33 0 0.66 0 1 0 C1.08153933 1.58246707 1.13943557 3.16616273 1.1875 4.75 C1.23970703 6.07257813 1.23970703 6.07257813 1.29296875 7.421875 C0.94923684 10.44671583 -0.00227459 11.75583602 -2 14 C-1.33333333 9.33333333 -0.66666667 4.66666667 0 0 Z " fill="#A61B7C" transform="translate(193,107)"/>
<path d="M0 0 C1.485 0.99 1.485 0.99 3 2 C3.1875 5.125 3.1875 5.125 3 8 C2.01 7.67 1.02 7.34 0 7 C-1.125 2.25 -1.125 2.25 0 0 Z " fill="#509FEE" transform="translate(87,153)"/>
<path d="M0 0 C2.31 0.33 4.62 0.66 7 1 C5.625 3 5.625 3 4 5 C3.34 5 2.68 5 2 5 C2 4.01 2 3.02 2 2 C1.34 2 0.68 2 0 2 C0 1.34 0 0.68 0 0 Z " fill="#5C1684" transform="translate(140,179)"/>
<path d="M0 0 C0.33 0 0.66 0 1 0 C1 2.31 1 4.62 1 7 C-0.98 7.99 -0.98 7.99 -3 9 C-2.01 6.03 -1.02 3.06 0 0 Z " fill="#12809E" transform="translate(322,151)"/>
</svg>
